<svg width="1440" height="120" viewBox="0 0 1440 120" fill="none" xmlns="http://www.w3.org/2000/svg" preserveAspectRatio="none">
<path opacity="0.25" d="M0 120L0 73.71C57.348 51.51 124.308 41.54 189.6 45.71C274.032 51.08 353.196 79.02 437.76 83.21C526.368 87.57 614.808 66.33 699.6 47.95C782.724 29.95 865.56 23.07 950.88 34.87C994.26 40.87 1034.7 52.71 1076.22 64.21C1187.39 95 1335.6 134.29 1440 67.53V120L0 120Z" fill="white"/>
<path opacity="0.5" d="M0 120L0 104.19C15.6 83.08 33.168 63.14 57.228 47.95C119.292 8.73 198 9 269.496 28.42C306.876 38.57 341.604 54.49 377.1 68.22C426.204 87.22 478.776 114.22 534.096 117.89C577.608 120.74 619.176 108.47 652.416 86.33C690.54 60.94 727.2 24.33 776.772 13.33C825.3 2.54 874.392 20.02 919.728 37.61C965.064 55.2 1009.92 76.61 1060.03 80.66C1131.71 86.51 1195.97 57.78 1262.71 41.82C1298.95 33.16 1333.51 35.65 1367.22 49.32C1394.14 60.21 1424.82 76.25 1440 98.56V120L0 120Z" fill="white"/>
<path d="M0 120L0 114.37C179.916 61 376.908 48.68 570.996 77.43C622.596 85.07 672.072 97.55 724.128 103.89C794.928 112.52 859.104 91.65 922.8 68.49C993.516 42.78 1063.2 24.76 1141.44 30C1245.28 37 1348.39 75.71 1440 114.81V120L0 120Z" fill="#F5F5F5"/>
</svg>
