<svg width="2502" height="444" viewBox="0 0 2502 444" fill="none" xmlns="http://www.w3.org/2000/svg">
<path d="M541 73C552.88 73 564.76 73 577 73C577 93.13 577 113.26 577 134C612.97 134 648.94 134 686 134C686 145.22 686 156.44 686 168C651.35 168 616.7 168 581 168C588.873 202.118 599.559 228.637 622 255C622.614 255.724 623.227 256.449 623.859 257.195C639.698 275.305 657.033 290.254 676.959 303.597C677.632 304.06 678.306 304.523 679 305C679.582 305.309 680.165 305.618 680.765 305.937C685.637 308.796 685.637 308.796 686.611 312.029C686.811 314.533 686.788 316.947 686.684 319.457C686.674 320.36 686.664 321.263 686.654 322.193C686.615 325.068 686.527 327.939 686.438 330.812C686.403 332.765 686.371 334.717 686.342 336.67C686.265 341.448 686.144 346.223 686 351C677.399 350.09 677.399 350.09 674.098 348.355C673.444 348.014 672.789 347.673 672.115 347.322C671.438 346.947 670.761 346.573 670.063 346.188C669.338 345.795 668.612 345.403 667.865 344.999C657.028 338.976 646.95 331.539 637.274 323.809C635.506 322.402 633.714 321.025 631.914 319.66C618.566 309.497 606.185 298.383 596 285C594.843 283.521 593.684 282.043 592.524 280.566C581.592 266.625 572.801 252.77 564.93 236.895C564.615 236.262 564.3 235.63 563.976 234.979C563.286 233.58 562.608 232.176 561.939 230.767C561.59 230.043 561.242 229.32 560.883 228.574C560.57 227.914 560.257 227.253 559.934 226.573C559.083 224.816 559.083 224.816 557 224C556.841 224.677 556.682 225.353 556.517 226.05C554.791 232.914 552.408 238.9 549.063 245.125C548.342 246.48 548.342 246.48 547.608 247.862C542.764 256.765 537.118 264.936 531 273C530.536 273.62 530.072 274.239 529.594 274.877C522.922 283.755 515.684 291.989 508 300C507.218 300.824 506.435 301.647 505.629 302.496C500.129 308.153 494.197 313.126 488 318C486.449 319.224 486.449 319.224 484.867 320.473C451.767 346.386 451.767 346.386 434.238 350.102C433.441 350.273 432.643 350.443 431.822 350.62C431.221 350.745 430.619 350.871 430 351C429.752 345.432 429.571 339.867 429.451 334.295C429.401 332.402 429.333 330.509 429.246 328.618C428.543 312.907 428.543 312.907 432.068 308.292C434.644 306.482 437.102 305.213 440 304C441.539 302.987 441.539 302.987 443.109 301.953C443.981 301.391 444.852 300.829 445.75 300.25C465.409 287.178 483.344 271.522 497.658 252.756C498.904 251.126 500.162 249.506 501.422 247.887C513.384 232.316 522.345 215.437 529 197C529.239 196.392 529.479 195.784 529.725 195.157C531.647 190.241 533.021 185.332 534.188 180.188C534.365 179.438 534.542 178.688 534.725 177.916C535.427 174.882 536 172.125 536 169C501.35 168.67 466.7 168.34 431 168C431 156.78 431 145.56 431 134C466.97 133.67 502.94 133.34 540 133C540.33 113.2 540.66 93.4 541 73Z" fill="black" class="nav-logo-text"/>
<path fill-rule="evenodd" clip-rule="evenodd" d="M851 75H885L886 95L895.623 94.9841C906.088 94.9676 916.554 94.9565 927.019 94.9482C933.367 94.943 939.716 94.9359 946.064 94.9246C952.184 94.9137 958.305 94.9077 964.426 94.9051C966.767 94.9033 969.108 94.8996 971.449 94.8943C974.715 94.8871 977.981 94.886 981.248 94.8865L984.212 94.8756L986.894 94.8797L989.237 94.877C990.206 94.9446 990.642 94.975 991.005 95.1546C991.302 95.3019 991.549 95.5495 992 96C992.1 98.1335 992.131 100.27 992.133 102.406L992.137 106.348L992.13 108.411C992.125 110.491 992.13 112.572 992.137 114.652L992.133 118.594L992.129 122.24C992.046 124.018 992.016 124.651 991.738 125.143C991.585 125.415 991.356 125.644 991 126C989.621 126.095 988.238 126.122 986.856 126.12L984.149 126.124L981.156 126.114L978.023 126.114C974.587 126.113 971.151 126.105 967.715 126.098C965.34 126.096 962.965 126.094 960.589 126.093C954.324 126.09 948.059 126.08 941.794 126.069C935.89 126.059 929.986 126.055 924.083 126.05L922.631 126.049C910.087 126.038 897.544 126.021 885 126V143L893.106 142.968C901.939 142.935 910.772 142.913 919.605 142.896C924.961 142.886 930.317 142.872 935.673 142.849C940.841 142.827 946.009 142.815 951.176 142.81C953.149 142.807 955.122 142.799 957.095 142.789C959.855 142.774 962.615 142.772 965.376 142.773L967.854 142.751C972.753 142.769 974.412 142.775 975.766 143.42C976.459 143.75 977.073 144.248 978 145C978.949 147.894 979.127 150.553 979.134 153.585L979.147 156.359L979.145 159.381L979.155 162.58C979.165 166.073 979.167 169.566 979.168 173.059C979.171 175.485 979.175 177.911 979.178 180.337C979.184 185.424 979.186 190.51 979.185 195.597C979.185 202.118 979.199 208.64 979.216 215.161C979.227 220.172 979.229 225.183 979.229 230.194C979.23 232.598 979.234 235.003 979.242 237.407C979.252 240.768 979.249 244.129 979.243 247.49L979.26 250.505C979.231 256.912 979.22 259.295 978.249 261.183C977.674 262.301 976.763 263.246 975.312 264.75C970.497 267.353 964.666 267.241 959.175 267.136C958.295 267.12 957.424 267.103 956.566 267.098L953.906 267.093C951.125 267.088 948.344 267.075 945.562 267.062C943.667 267.057 941.772 267.053 939.877 267.049C935.251 267.038 930.626 267.021 926 267C934.536 279.945 947.181 288.743 960 297.188L963.039 299.225C971.955 305.14 980.671 310.742 991.102 313.457C992.199 313.771 992.662 313.903 993.05 314.152C993.334 314.334 993.578 314.578 994 315C994.101 317.437 994.14 319.844 994.133 322.281L994.136 324.489C994.136 326.033 994.135 327.576 994.13 329.12C994.125 331.49 994.13 333.86 994.137 336.23C994.136 337.727 994.135 339.223 994.133 340.719L994.139 342.881C994.121 346.554 994.117 347.531 993.674 348.232C993.514 348.486 993.297 348.703 993 349L993 349C969.565 351.044 941.911 328.592 924.314 314.305C923.848 313.926 923.389 313.554 922.938 313.188C921.286 311.799 919.64 310.403 918 309L915.555 306.961C911.374 303.421 910 302 910 302L909 301L908 300C907.873 299.873 907.757 299.758 907.647 299.649C906.893 298.9 906.457 298.467 905.062 296.812L903.199 294.637C901.542 292.65 899.902 290.652 898.27 288.645L896.822 286.885C895.871 285.729 894.929 284.565 893.996 283.394C891.022 279.783 889.557 278.823 885 277V351H849V277C846.744 278.802 845.64 279.685 844.607 280.644C843.615 281.565 842.689 282.557 840.875 284.5C817.943 311.196 791.345 329.313 760 345L756.695 346.723L756.694 346.723C755.778 347.04 755.089 347.278 754.388 347.472C752.262 348.061 750.024 348.248 741.001 349L741 349V314C745.408 312.111 749.501 310.49 754 309C768.765 302.935 782.721 293 794.812 282.688L796.386 281.347C800.898 277.352 804.816 272.83 808.755 268.283L809 268L805.379 267.956C800.912 267.897 796.444 267.82 791.977 267.738C790.05 267.704 788.123 267.676 786.196 267.654C783.413 267.62 780.63 267.567 777.848 267.512L775.271 267.492C769.577 267.355 764.132 266.629 759 264C756.889 260.833 756.749 260.083 756.746 256.466L756.729 253.649L756.741 250.565L756.731 247.312C756.722 243.754 756.728 240.195 756.734 236.637C756.733 234.167 756.731 231.697 756.729 229.227C756.726 224.044 756.73 218.862 756.739 213.679C756.751 207.038 756.744 200.396 756.732 193.755C756.725 188.652 756.727 183.548 756.732 178.445C756.734 175.996 756.732 173.548 756.727 171.099C756.722 167.674 756.73 164.249 756.741 160.823L756.729 157.757C756.759 152.77 757.021 148.673 759 144C763.54 142.858 767.997 142.866 772.646 142.886L775.249 142.886C778.079 142.887 780.908 142.895 783.738 142.902C785.704 142.904 787.67 142.906 789.636 142.907C794.803 142.91 799.97 142.92 805.137 142.931C810.006 142.941 814.876 142.945 819.746 142.95L820.963 142.951C831.309 142.962 841.654 142.979 852 143V126H743V95H851V75ZM794.36 172.88L797.53 172.887L801.109 172.887L805.004 172.902L808.968 172.907C812.452 172.911 815.935 172.92 819.419 172.931C822.695 172.941 825.972 172.946 829.248 172.95L829.264 172.95L830.076 172.951C837.051 172.962 844.025 172.98 851 173V190H791C791 177.292 791 174.112 792.416 173.244C792.889 172.955 793.519 172.923 794.36 172.88ZM905.365 217.896C897.577 217.918 889.788 217.955 882 218V234H944V220C942.95 218.95 942.451 218.451 941.85 218.18C941.306 217.934 940.678 217.874 939.482 217.76L936.265 217.773L932.625 217.773C930.643 217.789 928.661 217.805 926.679 217.81C923.191 217.815 919.703 217.827 916.214 217.849C912.598 217.872 908.982 217.886 905.365 217.896ZM794.398 217.88L797.621 217.887L801.261 217.887L805.223 217.902C806.566 217.904 807.91 217.906 809.254 217.907C812.797 217.911 816.34 217.92 819.882 217.931C823.231 217.941 826.58 217.946 829.929 217.95L830.721 217.951C837.814 217.962 844.907 217.98 852 218V234H791C791 222.19 791 219.125 792.379 218.26C792.863 217.957 793.516 217.924 794.398 217.88ZM943 174H883V190H943V174Z" fill="black" class="nav-logo-text"/>
<path fill-rule="evenodd" clip-rule="evenodd" d="M1187.79 75H1224.79V95L1229.5 94.9365C1235.27 94.8642 1241.03 94.8182 1246.79 94.7803C1249.29 94.7601 1251.78 94.7328 1254.28 94.6982C1257.86 94.6498 1261.44 94.627 1265.03 94.6094L1268.41 94.5468L1271.57 94.5459L1274.34 94.519C1277.6 95.1577 1278.78 96.404 1280.79 99C1281.14 101.751 1281.26 104.088 1281.18 106.828L1281.17 109.098C1281.15 111.483 1281.1 113.866 1281.04 116.25C1281.02 117.87 1281.01 119.49 1280.99 121.109C1280.95 125.074 1280.88 129.036 1280.79 133L1293.79 134V163C1289.77 165.014 1287.13 165.441 1282.77 165.826L1280.79 166L1281.01 167.79C1281.73 174.313 1281.98 180.753 1281.98 187.312L1282.02 190.229L1282.02 193.051L1282.04 195.572C1281.75 198.461 1281.16 200.43 1279.79 203C1273.86 205.459 1266.67 205.339 1260.16 205.229H1260.16L1260.15 205.229C1259.38 205.216 1258.62 205.204 1257.88 205.195L1254.9 205.187C1251.8 205.176 1248.7 205.151 1245.61 205.125C1243.49 205.115 1241.37 205.106 1239.25 205.098C1234.1 205.076 1228.95 205.041 1223.79 205V218H1285.79V245C1281.89 245.782 1278.9 246.122 1274.99 246.114L1271.54 246.113L1267.84 246.098L1264.02 246.093C1260.69 246.089 1257.36 246.08 1254.03 246.069C1250.89 246.059 1247.75 246.055 1244.62 246.05L1243.81 246.049C1237.14 246.038 1230.47 246.021 1223.79 246V263H1288.79V291C1283.83 291.621 1279.55 292.124 1274.65 292.114L1271.2 292.113L1267.54 292.098L1263.74 292.093C1260.44 292.089 1257.13 292.08 1253.82 292.069C1250.72 292.059 1247.61 292.055 1244.51 292.05L1244.48 292.05L1243.67 292.049C1237.04 292.038 1230.42 292.021 1223.79 292L1224.79 312L1293.79 313L1291.79 344C1288.61 346.124 1287.81 346.253 1284.16 346.267L1281.27 346.293L1278.11 346.291L1274.77 346.311C1271.11 346.33 1267.45 346.334 1263.79 346.336C1261.23 346.342 1258.67 346.349 1256.11 346.356C1250.72 346.368 1245.34 346.372 1239.95 346.371C1233.79 346.369 1227.64 346.39 1221.48 346.422C1215.5 346.452 1209.53 346.459 1203.55 346.457C1201.04 346.46 1198.53 346.468 1196.01 346.484C1160.21 346.686 1127.63 340.099 1098.73 317.938C1097.2 316.675 1096.56 316.151 1095.85 316.006C1095.34 315.903 1094.79 315.993 1093.86 316.146L1093.86 316.146C1091.23 317.234 1089.82 318.667 1087.85 320.719L1085.6 323.032L1083.23 325.5C1076.71 332.158 1070.23 338.363 1062.79 344L1060.53 345.828L1058.42 347.5L1056.65 348.906C1054.54 350.147 1052.6 350.496 1050.27 350.915H1050.27C1050.11 350.943 1049.95 350.971 1049.79 351C1049.62 345.271 1049.49 339.544 1049.41 333.812C1049.37 331.865 1049.33 329.917 1049.27 327.97C1049.18 325.164 1049.14 322.361 1049.11 319.555L1049 316.931C1049 313.299 1049 311.877 1049.52 310.687C1049.86 309.921 1050.41 309.251 1051.33 308.15C1053.09 306.642 1054.89 305.321 1056.79 304C1059.07 301.632 1061.16 299.134 1063.27 296.623L1063.79 296L1066.23 293.375C1068.3 290.23 1068.17 288.749 1067.79 285C1066.74 282.075 1065.38 279.335 1063.98 276.562C1063.27 275.106 1062.55 273.649 1061.84 272.191L1060.87 270.26C1058.28 264.822 1056.34 259.741 1055.19 253.816L1054.8 251.819C1054.53 250.436 1054.27 249.051 1054 247.667C1053.61 245.569 1053.2 243.475 1052.78 241.381C1052.52 240.026 1052.26 238.671 1052 237.316L1051.3 233.643C1051.14 232.493 1051.03 231.706 1050.96 230.916C1050.79 229.203 1050.79 227.475 1050.79 222H1079.79L1079.79 222C1081.91 228.362 1082.54 230.227 1082.83 232.142C1082.95 232.936 1083.02 233.739 1083.11 234.875C1083.29 236.532 1083.38 237.382 1083.8 238.01C1084.25 238.672 1085.06 239.086 1086.73 239.938C1088.37 240.612 1089.06 240.898 1089.78 240.999C1090.31 241.073 1090.85 241.046 1091.79 241L1092.2 237.133C1092.37 235.464 1092.55 233.794 1092.73 232.125L1093 229.574L1093.26 227.133L1093.5 224.879C1093.63 224.014 1093.71 223.547 1093.85 223.099C1094.01 222.576 1094.25 222.079 1094.79 221C1095.03 218.287 1095.21 215.592 1095.36 212.875L1095.49 210.59C1095.59 208.727 1095.69 206.863 1095.79 205L1092.68 205.063C1088.84 205.136 1085.01 205.182 1081.17 205.22C1079.51 205.24 1077.86 205.267 1076.2 205.302C1073.81 205.351 1071.43 205.373 1069.04 205.391L1066.81 205.453C1061.66 205.455 1058.72 204.315 1054.79 201C1050.79 191.81 1051.26 178.18 1053.65 168.562C1055.1 165.425 1056.78 162.815 1058.79 160L1060.31 157.857C1064.36 152.15 1068.55 146.564 1072.79 141C1074.46 138.794 1076.13 136.585 1077.79 134.375L1079.73 131.836C1082.54 127.972 1085.17 123.99 1087.79 120L1085.12 120.032C1081.83 120.066 1078.54 120.091 1075.25 120.11C1073.83 120.12 1072.41 120.134 1070.99 120.151C1068.94 120.175 1066.89 120.187 1064.85 120.195L1061.12 120.227C1057.89 120.007 1055.69 119.388 1052.79 118C1052.77 113.603 1052.75 109.207 1052.74 104.81C1052.73 103.314 1052.73 101.817 1052.72 100.32C1052.71 98.173 1052.7 96.026 1052.7 93.8789L1052.68 89.9592C1052.79 87 1052.79 87 1053.79 86C1055.75 85.8955 1057.71 85.8614 1059.67 85.8547L1063.49 85.8354C1064.87 85.8339 1066.26 85.8328 1067.65 85.832C1069.06 85.8288 1070.48 85.8255 1071.9 85.8219C1074.87 85.8159 1077.85 85.8141 1080.83 85.8147C1084.63 85.8148 1088.43 85.8012 1092.24 85.7839C1095.17 85.7728 1098.1 85.7708 1101.03 85.7713C1102.43 85.7701 1103.83 85.7657 1105.23 85.758C1107.2 85.7481 1109.17 85.7523 1111.14 85.7571L1114.53 85.7528C1118.19 86.0301 1121.33 86.7794 1124.79 88C1126.55 91.5035 1126.42 96.1929 1126.31 100.459C1126.27 101.694 1126.24 102.893 1126.25 104.018C1126.28 105.572 1126.32 107.125 1126.38 108.678C1126.77 119.684 1125.63 126.889 1118.79 136L1117.39 137.995C1116.24 139.596 1115.02 141.144 1113.79 142.688L1112.5 144.325C1111.27 145.888 1110.03 147.444 1108.79 149C1107.58 150.561 1106.38 152.123 1105.17 153.688C1103.35 156.032 1101.51 158.344 1099.62 160.633L1097.42 163.312L1095.4 165.738C1093.83 167.955 1093.35 169.398 1092.79 172L1095.53 171.984C1098.87 171.967 1102.22 171.955 1105.56 171.945C1107.01 171.94 1108.45 171.933 1109.9 171.925C1111.98 171.912 1114.06 171.907 1116.13 171.902L1119.93 171.886C1121.8 171.96 1122.45 171.986 1122.95 172.272C1123.22 172.425 1123.45 172.652 1123.79 173C1127.63 192.555 1126.65 213.992 1124.92 233.75L1124.68 236.489C1124.31 240.133 1124.16 241.606 1123.62 242.92C1123.25 243.811 1122.71 244.628 1121.79 246C1121.56 247.062 1121.44 247.615 1121.36 248.173C1121.26 248.781 1121.2 249.394 1121.08 250.675L1121.08 250.676L1120.75 253.436C1120.53 255.341 1120.32 257.247 1120.11 259.154C1119.26 266.031 1117.75 269.838 1112.98 274.938C1112.33 275.9 1111.97 276.432 1111.79 277.019C1111.56 277.747 1111.59 278.558 1111.67 280.375C1113.11 285.032 1115.43 286.751 1119.05 289.447C1119.29 289.627 1119.54 289.811 1119.79 290L1122.02 291.941C1140.58 307.895 1165.41 310.013 1188.79 312V292L1183.39 292.035C1169.08 292.098 1154.79 291.977 1140.48 291.562L1138.26 291.503C1136.19 291.446 1134.13 291.383 1132.06 291.316L1128.46 291.205C1126.76 291.074 1126.14 291.027 1125.66 290.749C1125.39 290.592 1125.16 290.361 1124.79 290L1124.79 290C1124.67 287.363 1124.61 284.763 1124.61 282.125L1124.57 279.961C1124.55 274.19 1125.41 269.516 1126.46 263.841C1126.57 263.239 1126.68 262.627 1126.79 262H1188.79V247L1185.47 247.035C1168.92 247.147 1152.39 246.636 1135.85 246.125H1135.85L1135.69 246.12C1134.39 246.08 1133.09 246.04 1131.79 246V218H1187.79V205L1182.85 205.016C1176.83 205.034 1170.8 205.045 1164.78 205.055C1162.17 205.06 1159.55 205.067 1156.94 205.075C1153.2 205.088 1149.45 205.093 1145.7 205.098L1142.14 205.113L1138.86 205.114L1135.96 205.12C1134.67 205.049 1134.15 205.02 1133.73 204.798C1133.44 204.647 1133.2 204.406 1132.79 204C1132.59 200.756 1132.6 197.504 1132.6 194.254C1132.61 193.544 1132.61 192.835 1132.61 192.125L1132.57 188.746L1132.56 185.508L1132.55 182.528C1132.65 181.471 1132.71 180.856 1132.89 180.279C1133.14 179.476 1133.63 178.746 1134.79 177C1135.78 176.822 1136.33 176.723 1136.88 176.666C1137.57 176.595 1138.25 176.586 1139.79 176.568H1139.79L1142.95 176.508L1146.36 176.488L1149.85 176.434C1153.54 176.38 1157.23 176.346 1160.92 176.312C1163.42 176.279 1165.91 176.245 1168.41 176.209C1174.54 176.124 1180.67 176.057 1186.79 176L1187.79 165L1185.49 165.007C1178.32 165.027 1171.15 165.042 1163.99 165.052C1160.3 165.057 1156.62 165.064 1152.93 165.075C1149.38 165.086 1145.83 165.092 1142.27 165.095C1140.91 165.097 1139.56 165.1 1138.2 165.106C1136.3 165.113 1134.4 165.113 1132.51 165.114L1129.23 165.12C1127.72 165.046 1127.15 165.018 1126.69 164.77C1126.41 164.617 1126.18 164.381 1125.79 164C1125.69 162.194 1125.66 160.383 1125.66 158.574L1125.66 155.221L1125.67 151.688L1125.66 148.189L1125.66 144.824L1125.66 141.733C1125.72 140.64 1125.75 139.984 1125.83 139.335C1125.95 138.361 1126.19 137.401 1126.79 135H1187.79V124L1183.77 123.924C1178.83 123.83 1173.89 123.729 1168.95 123.628C1166.82 123.584 1164.68 123.543 1162.55 123.503C1159.47 123.445 1156.4 123.381 1153.32 123.316L1150.45 123.266C1145.48 123.156 1140.7 122.829 1135.79 122C1134.72 118.781 1134.66 116.446 1134.67 113.062L1134.66 109.91C1134.81 105.515 1135.19 101.13 1135.56 96.7472C1135.64 95.8314 1135.72 94.9157 1135.79 94H1187.79V75ZM1223.79 165H1253.79V177C1249.68 177.025 1245.57 177.043 1241.46 177.055C1240.06 177.06 1238.66 177.067 1237.26 177.075C1235.25 177.088 1233.24 177.093 1231.24 177.098L1227.57 177.114C1225.78 177.04 1225.14 177.014 1224.65 176.737C1224.38 176.584 1224.15 176.355 1223.79 176V165ZM1236.56 122.945C1232.3 122.957 1228.05 122.975 1223.79 123V134H1254.79V124C1254.45 123.652 1254.22 123.425 1253.95 123.272C1253.45 122.986 1252.8 122.96 1250.93 122.886L1247.13 122.902C1245.06 122.907 1242.98 122.912 1240.9 122.925C1239.45 122.933 1238 122.94 1236.56 122.945Z" fill="black" class="nav-logo-text"/>
<path fill-rule="evenodd" clip-rule="evenodd" d="M1354 84H1446L1445 115H1354V84ZM1593.06 98.8748C1593.05 94.9164 1593.03 90.9582 1593 86.9998C1587.79 86.8873 1582.95 87.0221 1577.83 87.9647C1571.45 89.188 1565.08 90.1597 1558.62 90.7738C1551.01 91.4639 1543.48 92.3069 1535.94 93.4998C1519.09 96.2859 1502.09 97.4217 1485.06 98.4325C1482.86 98.5627 1480.66 98.6946 1478.46 98.828C1475.25 99.0238 1472.04 99.2196 1468.83 99.4139L1459 99.9998V131H1493V195H1457V229H1493C1492.96 240.702 1492.92 252.405 1492.9 264.107L1492.9 265.536C1492.89 271.033 1492.88 276.529 1492.86 282.026C1492.84 287.87 1492.82 293.714 1492.81 299.558C1492.81 301.788 1492.81 304.017 1492.8 306.246C1492.79 309.444 1492.77 312.641 1492.77 315.839L1492.77 318.798C1492.7 327.541 1492.74 338.141 1499 345C1505.49 349.706 1511.75 350.579 1519.61 350.618C1521.63 350.588 1523.64 350.558 1525.66 350.552C1528.54 350.551 1531.41 350.544 1534.29 350.514C1537.98 350.469 1541.68 350.431 1545.38 350.425C1548.28 350.422 1551.19 350.415 1554.09 350.398C1555.49 350.389 1556.88 350.38 1558.28 350.371C1559.67 350.365 1561.13 350.39 1562.64 350.416H1562.64H1562.64H1562.65H1562.65C1571.11 350.559 1581 350.727 1587.56 345.687C1590.82 342.101 1591.89 339.507 1592.24 334.665L1592.23 330.823C1592.23 328.594 1592.23 326.366 1592.21 324.137C1592.2 322.548 1592.19 320.958 1592.19 319.368C1592.18 315.199 1592.17 311.03 1592.15 306.861C1592.12 301.69 1592.11 296.52 1592.1 291.349C1592.09 289.082 1592.09 287.493 1592.08 285.904C1592.07 282.179 1592.06 278.454 1592 266H1558L1557 317L1533 318V226H1533.21C1538.18 226 1543.05 226 1548 225.746L1550.05 225.633C1552.34 225.511 1554.64 225.387 1556.93 225.259L1559.31 225.125C1572.26 224.409 1585.12 223.455 1598 222V189L1597.76 188.998H1597.76H1597.76H1597.76H1597.76C1593.79 188.959 1589.83 188.921 1585.86 188.902C1584.16 188.894 1582.45 188.885 1580.75 188.875C1573.83 188.8 1566.93 188.877 1560 189L1532 191V128C1536.69 128 1541.16 127.982 1545.81 127.619L1547.84 127.449C1549.33 127.327 1550.82 127.204 1552.31 127.08C1554.61 126.884 1556.91 126.69 1559.2 126.508C1570.28 125.632 1581.09 124.111 1592 122C1592.83 115.394 1593.11 108.89 1593.09 102.234L1593.06 98.8748ZM1449 127H1348V157H1451C1451 139.613 1451 135.37 1450.14 131.31C1449.86 130 1449.49 128.708 1449 127ZM1446 172H1353V198H1447C1447 188.177 1447 184.385 1446.77 180.607C1446.62 178.231 1446.39 175.861 1446 172ZM1353 214C1364.98 213.977 1376.96 213.959 1388.93 213.948C1394.5 213.943 1400.06 213.936 1405.62 213.924C1410.98 213.914 1416.34 213.908 1421.7 213.905C1423.75 213.903 1425.81 213.9 1427.86 213.894C1430.72 213.887 1433.58 213.886 1436.44 213.886L1439.04 213.875C1443.48 213.883 1444.55 213.885 1445.29 214.375C1445.53 214.53 1445.73 214.733 1446 215C1446.21 218.128 1446.2 221.264 1446.19 224.399C1446.19 225.079 1446.19 225.758 1446.19 226.437L1446.22 229.697L1446.23 232.809L1446.24 235.677C1446.13 236.739 1446.07 237.315 1445.85 237.819C1445.58 238.418 1445.09 238.914 1444 240C1441.11 240.188 1438.31 240.252 1435.42 240.227L1432.73 240.228C1429.79 240.226 1426.84 240.211 1423.9 240.195C1421.86 240.191 1419.82 240.189 1417.79 240.187C1412.42 240.179 1407.05 240.159 1401.68 240.137C1396.63 240.118 1391.58 240.109 1386.53 240.1L1386.5 240.1L1385.25 240.098C1374.5 240.076 1363.75 240.041 1353 240V214ZM1369.38 255.855L1371.75 255.844C1374.31 255.835 1376.86 255.833 1379.42 255.832C1381.21 255.829 1383 255.825 1384.8 255.822C1388.53 255.816 1392.27 255.814 1396.01 255.815C1400.8 255.815 1405.59 255.801 1410.37 255.784C1414.06 255.773 1417.76 255.771 1421.45 255.771C1423.21 255.77 1424.98 255.766 1426.75 255.758C1429.21 255.748 1431.67 255.751 1434.14 255.757L1436.34 255.74C1440.51 255.766 1444.87 255.874 1448 259C1448.11 261.698 1448.15 264.37 1448.15 267.068L1448.16 269.63C1448.16 272.44 1448.17 275.249 1448.17 278.059C1448.17 280.003 1448.17 281.947 1448.18 283.892C1448.18 287.973 1448.19 292.054 1448.19 296.136C1448.19 301.376 1448.2 306.617 1448.22 311.857C1448.23 315.875 1448.23 319.892 1448.23 323.909C1448.23 325.842 1448.23 327.774 1448.24 329.707C1448.25 332.406 1448.25 335.104 1448.24 337.802L1448.26 340.241C1448.24 343.674 1448.23 344.976 1447.7 346.002C1447.37 346.63 1446.85 347.155 1446 348C1440.81 349.035 1435.72 349.148 1430.45 349.145L1427.95 349.155C1425.24 349.165 1422.54 349.167 1419.83 349.168C1417.94 349.171 1416.05 349.174 1414.16 349.178C1410.22 349.184 1406.27 349.186 1402.32 349.185C1397.26 349.185 1392.19 349.199 1387.13 349.216C1383.24 349.227 1379.34 349.229 1375.45 349.229C1373.58 349.23 1371.71 349.234 1369.84 349.242C1367.24 349.252 1364.64 349.249 1362.03 349.243L1359.69 349.26C1355.91 349.238 1354.22 349.148 1351 347C1349.31 340.321 1349.51 332.839 1349.71 325.655C1349.77 323.366 1349.83 321.107 1349.83 318.914C1349.83 317.283 1349.83 315.651 1349.82 314.02C1349.82 310.623 1349.81 307.226 1349.81 303.829C1349.81 299.481 1349.8 295.133 1349.78 290.786C1349.77 287.426 1349.77 284.067 1349.77 280.707C1349.77 279.104 1349.77 277.5 1349.76 275.897C1349.75 273.66 1349.75 271.423 1349.76 269.186L1349.75 265.337C1349.99 262.116 1350.61 259.891 1352 257C1357.82 256.258 1363.52 255.851 1369.38 255.855ZM1384 285L1399.44 284.938L1404.31 284.91L1408.12 284.902L1412.04 284.886H1412.04C1413.99 284.961 1414.65 284.987 1415.17 285.28C1415.43 285.433 1415.66 285.658 1416 286C1416.1 288.364 1416.14 290.698 1416.13 293.062L1416.14 295.203C1416.14 296.7 1416.13 298.196 1416.13 299.692C1416.13 301.99 1416.13 304.288 1416.14 306.586C1416.14 308.036 1416.13 309.487 1416.13 310.938L1416.14 313.033C1416.12 316.569 1416.12 317.528 1415.68 318.219C1415.52 318.477 1415.3 318.697 1415 319L1415 319C1412.71 319.088 1410.41 319.107 1408.12 319.098L1404.31 319.09L1399.44 319.062L1384 319V285Z" fill="black" class="nav-logo-text"/>
<path fill-rule="evenodd" clip-rule="evenodd" d="M1675 69H1706V141H1728L1726 173C1719.19 173.757 1716.96 174.005 1714.72 174.067C1713.64 174.097 1712.55 174.083 1710.94 174.062H1710.94L1708.09 174.035L1706 174L1706 176.339C1706.02 195.126 1706.04 213.914 1706.05 232.701C1706.06 241.787 1706.06 250.872 1706.08 259.958C1706.09 267.878 1706.09 275.798 1706.09 283.717C1706.1 287.91 1706.1 292.103 1706.11 296.295C1706.11 300.244 1706.11 304.193 1706.11 308.142C1706.11 309.588 1706.12 311.035 1706.12 312.482C1706.12 314.463 1706.12 316.444 1706.12 318.426L1706.12 321.78C1705.99 325.244 1705.53 328.577 1705 332C1704.88 333.527 1704.78 335.056 1704.72 336.586L1704.61 338.965C1704.53 340.595 1704.46 342.225 1704.39 343.855C1704.17 348.507 1704.12 349.577 1703.6 350.327C1703.45 350.551 1703.25 350.746 1703 351C1701.01 351.1 1699.02 351.131 1697.03 351.133L1693.36 351.137L1689.5 351.125L1685.64 351.137L1681.97 351.133L1678.58 351.129C1676.95 351.048 1676.35 351.018 1675.88 350.756C1675.6 350.603 1675.37 350.37 1675 350C1674.9 347.734 1674.88 345.466 1674.88 343.198L1674.88 341.018C1674.88 338.615 1674.88 336.213 1674.89 333.811L1674.89 333.73C1674.89 331.996 1674.89 330.262 1674.89 328.528C1674.89 323.805 1674.89 319.082 1674.9 314.359C1674.9 309.892 1674.91 305.425 1674.91 300.958L1674.91 299.569C1674.91 290.226 1674.92 280.883 1674.93 271.541C1674.94 260.907 1674.94 250.274 1674.95 239.64C1674.96 217.76 1674.98 195.88 1675 174H1652V141H1675V69ZM1858 192H1832V214H1813L1813 214.001C1811.72 217.211 1811.26 218.36 1811.03 219.553C1810.91 220.218 1810.85 220.897 1810.77 221.954L1810.77 221.954L1810.8 225.176L1810.82 228.682L1810.88 232.312C1810.91 236.542 1810.94 240.771 1811 245C1814.23 245.877 1817.34 246.232 1820.68 246.443L1822.75 246.562C1824.12 246.647 1825.49 246.732 1826.86 246.816L1830 247C1830.36 253.514 1829.32 259.491 1828.06 265.879C1827.66 267.874 1827.25 269.869 1826.87 271.868C1825.46 279.175 1823.89 286.131 1820.93 292.975L1820 295L1818.66 297.953L1817.5 300.25C1816.7 301.852 1815.87 303.435 1815 305C1810.99 309.901 1810.28 314.007 1809.58 320.281L1809.25 323.75C1808.39 331.528 1807.8 339.171 1808 347C1809.2 347.056 1809.87 347.087 1810.53 347.093C1811.35 347.1 1812.17 347.069 1813.99 347L1814 347C1822.15 344.91 1826.6 338.339 1831 331.75C1831.78 330.506 1832.57 329.271 1833.38 328.047C1836.05 324.406 1838.64 323.791 1843 323C1843.1 325.677 1843.2 328.353 1843.31 331.029L1843.44 334.312L1843.56 337.561L1843.68 340.676C1843.8 343.8 1844.01 346.016 1845 349C1847.2 349.861 1849.13 350.007 1851.49 350.129L1854.25 350.133L1857.28 350.137L1860.44 350.125L1863.58 350.137L1866.62 350.133C1875.21 350.122 1881.26 347.588 1888.25 342.75C1895.31 335.685 1896.97 326.241 1897.79 316.599L1898 313.75C1898.26 310.41 1898.51 307.071 1898.74 303.729L1899 300C1900.32 281.728 1901.16 263.49 1901.28 245.167L1901.31 238.875C1901.34 235.844 1901.37 232.814 1901.37 229.782L1901.36 226.992C1901.4 223.925 1901.29 221.065 1901 218C1899.59 217.058 1898.47 216.315 1897.28 215.733C1892.84 213.568 1887.31 213.638 1861.18 213.968L1859 214C1859.02 211.663 1859.04 209.326 1859.05 206.988L1859.06 204.125L1859.09 201.285L1859.1 198.57C1859.1 198.419 1859.1 198.272 1859.1 198.128L1859.1 198.123C1859.12 195.72 1859.13 194.264 1858 192ZM1866.06 246.938L1862.72 246.902L1862.5 246.91C1859.32 247.023 1859.11 247.03 1858.75 250.278L1858.57 253.293L1858.35 256.622L1858.33 256.934C1857.73 266.414 1857.13 275.729 1854.84 284.977L1854 288C1852.22 294.536 1850.21 300.777 1847.38 306.938C1845.62 310.564 1844.22 314.156 1843 318C1844.97 318.019 1846.93 318.037 1848.9 318.049L1851.31 318.062L1853.69 318.088L1855.99 318.098C1858.76 318.119 1860.29 317.902 1863 317L1863 317C1864.42 314.873 1865.56 313.163 1866.49 311.345C1870.32 303.864 1870.59 294.565 1872 247L1869.41 246.965L1866.06 246.938ZM1797.14 69.8865C1798.53 69.8866 1799.93 69.8923 1801.32 69.9023L1803.53 69.9066C1805.88 69.9122 1808.22 69.9248 1810.56 69.9375C1812.15 69.9425 1813.73 69.9471 1815.32 69.9512C1819.01 69.9608 1822.7 69.9789 1826.39 69.997L1827 70L1823 95L1835.37 94.9297C1838.65 94.9168 1841.92 94.906 1845.2 94.8965C1848.65 94.886 1852.09 94.872 1855.54 94.8491C1859.5 94.823 1863.47 94.8135 1867.43 94.8047L1871.14 94.7734C1877.75 94.7725 1883.62 95.1974 1890 97C1891.25 98.2542 1891.21 99.4145 1891.16 100.964L1891.16 100.965C1891.15 101.311 1891.13 101.676 1891.13 102.066L1891.14 104.689L1891.12 107.562L1891.11 110.543C1891 125.874 1890.53 141.137 1888.75 156.375L1888.46 159.164C1887.13 169.361 1883.14 176.914 1875.2 183.441C1868.4 188.263 1859.8 188.185 1851.7 188.112L1851.7 188.112C1851.1 188.106 1850.5 188.101 1849.91 188.098L1847.05 188.093C1844.05 188.088 1841.06 188.075 1838.06 188.062C1836.02 188.057 1833.98 188.053 1831.94 188.049C1826.96 188.038 1821.98 188.021 1817 188C1814.37 176.525 1813.63 165.758 1814 154L1817.62 153.924C1822.06 153.83 1826.49 153.73 1830.92 153.628C1832.84 153.584 1834.76 153.543 1836.68 153.503C1839.44 153.445 1842.2 153.381 1844.96 153.316L1847.56 153.266L1849.99 153.205L1852.12 153.158H1852.12C1853 153.115 1853.51 153.09 1854.01 152.999C1854.71 152.871 1855.38 152.615 1857 152L1857 152L1860 126H1814L1812 131C1798.71 156.774 1781.21 178.233 1753.03 187.91C1752.66 188.073 1752.17 188.278 1751.61 188.518L1751.61 188.518C1748.35 189.896 1742.33 192.445 1738.5 195C1741.12 195.328 1746.33 195.163 1751.57 194.996C1756.9 194.827 1762.26 194.657 1765 195V214L1770.84 213.965C1773.4 213.955 1775.95 213.946 1778.5 213.938L1782.34 213.912C1788.65 213.896 1794.78 213.9 1801 215C1802.32 216.325 1802.25 217.868 1802.18 219.564C1802.16 219.996 1802.14 220.437 1802.14 220.887L1802.13 222.988L1802.14 225.177C1802.14 227.556 1802.13 229.934 1802.12 232.312L1802.12 234.759C1802.1 245.762 1801.95 256.753 1801.56 267.75L1801.44 271.165C1801.27 275.533 1801.07 279.858 1800.49 284.191C1800.03 287.736 1799.83 291.183 1799.71 294.748C1798.73 322.77 1798.45 331.002 1794.64 336.991C1793.05 339.482 1790.86 341.585 1787.75 344.562C1779.8 350.144 1771.58 350.427 1762.12 350.25L1758.71 350.234C1753.03 350.18 1751.26 350.163 1749.58 349.78C1748.82 349.607 1748.08 349.359 1747 349V325C1742.28 326.288 1740.16 326.869 1738.47 328.067C1737.08 329.051 1735.99 330.451 1734 333C1729.97 339.102 1725.69 343.777 1719 347C1715.72 347.66 1715.72 347.66 1713 348C1712.55 325.687 1712.4 318.036 1714.74 311.238C1715.95 307.691 1717.85 304.377 1720.73 299.332C1727.19 287.543 1730.5 275.077 1733.37 262.062C1733.73 260.493 1734.09 258.923 1734.45 257.354C1735.31 253.572 1736.16 249.787 1737 246L1733.42 246.035C1731.86 246.045 1730.31 246.054 1728.75 246.062L1726.39 246.088L1724.11 246.098L1722.01 246.114C1721.35 246.076 1720.9 246.051 1720.46 245.998C1719.56 245.891 1718.68 245.67 1716 245V215H1737V158L1753 150C1756.49 147.724 1759.73 145.533 1763 143L1764.95 141.617C1768.82 138.679 1770.93 135.6 1773.2 131.297L1774.8 128.292L1776 126L1772.44 126.016C1768.09 126.034 1763.74 126.045 1759.39 126.055C1757.51 126.06 1755.62 126.067 1753.74 126.075C1751.03 126.088 1748.33 126.093 1745.63 126.098L1743.06 126.113C1741.04 126.113 1739.02 126.062 1737 126C1735.54 124.545 1735.68 122.347 1735.8 120.27V120.269C1735.83 119.695 1735.87 119.131 1735.87 118.594L1735.86 114.652L1735.87 112.589C1735.87 110.509 1735.87 108.428 1735.86 106.348L1735.87 102.406L1735.87 98.7598C1735.95 96.9819 1735.98 96.3493 1736.26 95.8569C1736.41 95.585 1736.64 95.3558 1737 95C1738.69 94.877 1740.38 94.8221 1742.07 94.7947L1745.35 94.7342L1748.91 94.6836L1752.54 94.6206C1756.38 94.555 1760.22 94.4962 1764.06 94.4375C1766.66 94.3943 1769.26 94.3507 1771.85 94.3066C1778.24 94.1993 1784.62 94.0976 1791 94L1791.17 91.9045C1791.42 88.7901 1791.68 85.6763 1791.94 82.5625L1792.2 79.2637L1792.46 76.1289L1792.7 73.2249C1793.13 70.0058 1793.44 69.9967 1796.35 69.9117C1796.59 69.9045 1796.86 69.8968 1797.14 69.8865ZM1769.06 246.938L1766.29 246.902C1764.96 246.959 1764.16 246.993 1763.66 247.397C1762.91 248.01 1762.84 249.475 1762.66 253.167C1762.36 259.897 1761.81 266.476 1760.58 273.109L1760 276C1758.44 284.199 1756.07 291.99 1753.38 299.875C1751.36 305.602 1749.61 310.943 1749 317L1751.92 317.07L1755.75 317.125L1756.15 317.132C1759.24 317.191 1762.09 317.246 1765.11 316.43C1766.07 315.707 1766.64 315.274 1767.04 314.716C1767.63 313.882 1767.83 312.77 1768.34 309.994L1768.65 307.93C1769.97 300.084 1770.81 292.213 1771.45 284.286C1771.57 282.822 1771.69 281.358 1771.81 279.895C1772.74 268.941 1773.55 257.984 1774 247L1771.85 246.965L1769.06 246.938Z" fill="black" class="nav-logo-text"/>
<path d="M2045.17 70C2056.39 70 2067.61 70 2079.17 70C2079.17 90.13 2079.17 110.26 2079.17 131C2087.01 130.988 2094.84 130.977 2102.91 130.965C2107.86 130.96 2112.82 130.955 2117.77 130.951C2125.64 130.945 2133.51 130.938 2141.38 130.925C2147.72 130.914 2154.06 130.908 2160.4 130.905C2162.82 130.903 2165.25 130.9 2167.67 130.894C2171.05 130.887 2174.44 130.886 2177.83 130.886C2178.83 130.883 2179.84 130.879 2180.88 130.876C2181.8 130.877 2182.72 130.878 2183.67 130.88C2184.47 130.879 2185.28 130.878 2186.1 130.877C2188.17 131 2188.17 131 2191.17 132C2192.24 133.966 2193.24 135.967 2194.17 138C2194.5 138.33 2194.83 138.66 2195.17 139C2195.26 140.374 2195.29 141.753 2195.28 143.13C2195.28 144.005 2195.28 144.88 2195.28 145.781C2195.27 146.736 2195.26 147.691 2195.25 148.676C2195.25 149.665 2195.25 150.655 2195.24 151.675C2195.23 154.783 2195.2 157.892 2195.17 161C2195.16 161.929 2195.16 162.858 2195.15 163.815C2195.09 170.273 2194.99 176.73 2194.86 183.188C2194.84 184.182 2194.82 185.176 2194.8 186.2C2194.49 201.287 2193.8 216.323 2192.73 231.375C2192.64 232.687 2192.64 232.687 2192.55 234.025C2191.83 244.081 2190.89 254.087 2189.65 264.092C2189.22 267.643 2188.81 271.194 2188.43 274.75C2182.4 329.633 2182.4 329.633 2163.37 345.5C2155.1 351.139 2145.43 351.562 2135.75 351.391C2134.52 351.385 2133.3 351.379 2132.04 351.373C2128.16 351.351 2124.29 351.301 2120.42 351.25C2117.78 351.23 2115.14 351.212 2112.49 351.195C2106.05 351.151 2099.61 351.085 2093.17 351C2091.4 338.017 2090.62 325.092 2090.17 312C2091.03 311.985 2091.03 311.985 2091.91 311.969C2097.9 311.86 2103.88 311.746 2109.87 311.628C2112.1 311.584 2114.33 311.543 2116.56 311.503C2119.78 311.445 2122.99 311.381 2126.21 311.316C2127.7 311.291 2127.7 311.291 2129.21 311.266C2134.29 311.158 2139.17 310.854 2144.17 310C2146.45 304.314 2148.06 298.804 2149.23 292.797C2149.4 291.93 2149.57 291.064 2149.74 290.171C2151.55 280.585 2152.48 270.962 2153.3 261.25C2153.46 259.334 2153.63 257.417 2153.8 255.501C2155.01 241.313 2155.88 227.116 2156.49 212.89C2157.17 196.904 2158.2 180.987 2159.17 165C2118.09 165.495 2118.09 165.495 2076.17 166C2075.51 172.27 2074.85 178.54 2074.17 185C2073.35 190.179 2072.49 195.297 2071.48 200.438C2071.36 201.098 2071.23 201.759 2071.1 202.44C2068.98 213.208 2066.18 223.462 2062.11 233.655C2061.12 236.137 2060.17 238.633 2059.23 241.133C2047.81 271.022 2029.73 297.346 2005.17 318C2004.39 318.662 2004.39 318.662 2003.59 319.337C1969.33 348 1969.33 348 1956.17 348C1956.09 341.843 1956.07 335.689 1956.1 329.531C1956.11 327.438 1956.1 325.344 1956.07 323.251C1956.03 320.236 1956.05 317.226 1956.07 314.211C1956.04 312.814 1956.04 312.814 1956 311.388C1956.09 307.386 1956.16 304.97 1959.13 302.116C1961.42 300.585 1963.74 299.281 1966.17 298C1974.96 291.972 1982.91 284.882 1990.59 277.519C1991.63 276.52 1992.68 275.527 1993.73 274.54C2007.5 261.637 2017.06 246.987 2025.17 230C2025.47 229.372 2025.78 228.744 2026.09 228.097C2029.88 220.051 2032.18 211.729 2034.3 203.125C2034.53 202.201 2034.76 201.276 2034.99 200.324C2037.72 188.631 2039.26 176.92 2041.17 165C2013.45 165 1985.73 165 1957.17 165C1957.17 153.78 1957.17 142.56 1957.17 131C1985.55 130.67 2013.93 130.34 2043.17 130C2043.98 121.609 2043.98 121.609 2044.38 113.253C2044.4 112.273 2044.42 111.293 2044.44 110.283C2044.45 109.268 2044.47 108.253 2044.49 107.207C2044.52 105.599 2044.52 105.599 2044.55 103.958C2044.62 100.577 2044.68 97.1945 2044.73 93.8125C2044.78 91.5019 2044.82 89.1914 2044.87 86.8809C2044.97 81.254 2045.07 75.627 2045.17 70Z" fill="black" class="nav-logo-text"/>
<path fill-rule="evenodd" clip-rule="evenodd" d="M2372.83 78.242C2374.48 78.2255 2376.13 78.1982 2377.78 78.16C2380.16 78.1051 2382.54 78.0833 2384.93 78.0687L2387.15 78C2391.12 78.0163 2392.78 78.4042 2395.85 80.9889L2398 83.5921C2399.59 85.0407 2401.2 86.4783 2402.81 87.9046C2405.91 90.6661 2408.88 93.4662 2411.75 96.4671C2416.91 101.69 2422.74 106.097 2428.58 110.515L2428.58 110.515C2429.05 110.874 2429.53 111.233 2430 111.592L2431.79 112.964C2453.35 129.401 2476.84 141.512 2501 153.592V183.592C2489.48 183.592 2481.63 181.671 2471.19 177.53C2469.35 176.808 2467.51 176.087 2465.67 175.369L2463.24 174.408C2462.21 174.016 2461.61 173.784 2460.99 173.588C2460.11 173.308 2459.2 173.099 2457 172.592L2457 172.592V190.592H2294C2294 178.858 2294 175.866 2294.41 172.932C2294.56 171.928 2294.74 170.931 2295 169.592C2291.02 171.003 2287.04 172.422 2283.06 173.842L2279.68 175.041C2274.79 176.789 2270.03 178.532 2265.37 180.827C2264.05 181.361 2263.13 181.734 2262.18 182.021C2259.99 182.684 2257.67 182.895 2250 183.592H2250V152.592C2255.29 149.945 2260.24 147.668 2265.75 145.717C2291.31 136.326 2313.37 120.195 2333 101.592C2334 100.675 2335.01 99.7613 2336.02 98.8499C2342.14 93.3099 2348.05 87.6162 2353.82 81.7093C2357.86 77.7891 2363.54 77.9803 2369.05 78.1655C2370.33 78.2085 2371.59 78.2511 2372.83 78.242ZM2373 108.592C2377.63 108.75 2379.74 110.959 2382.68 114.05L2382.68 114.05C2382.8 114.184 2382.93 114.318 2383.06 114.455L2384.94 116.467C2391.33 123.094 2398.02 128.779 2405.35 134.32C2408.37 136.647 2411.28 139.104 2414.2 141.562C2414.84 142.098 2415.47 142.635 2416.11 143.17C2420.23 146.628 2422.29 148.357 2424.38 150.052C2426.47 151.746 2428.58 153.406 2432.82 156.725L2432.82 156.725L2435 158.592V160.592H2314C2317.56 157.03 2320.63 154.252 2324.62 151.342C2329.66 147.622 2334.53 143.761 2339.36 139.768C2341.85 137.712 2344.39 135.712 2346.94 133.717C2355.15 127.149 2363.08 120.166 2369.7 111.956L2371 110.592H2373V108.592ZM2343.24 222.499C2337.71 222.498 2332.19 222.497 2326.67 222.491C2301.42 222.46 2276.23 222.438 2251 223.592V254.592L2251 254.592C2253 255.592 2253 255.592 2255.78 255.713L2259.38 255.706C2261.46 255.706 2263.54 255.705 2265.62 255.698C2267.11 255.693 2268.6 255.689 2270.09 255.687C2273.98 255.685 2277.88 255.679 2281.78 255.668C2285.82 255.656 2289.86 255.649 2293.9 255.644C2301.75 255.634 2309.61 255.619 2317.47 255.599L2320 255.592C2318.66 258.5 2317.31 261.408 2315.97 264.316L2314.3 267.928C2310.92 275.265 2307.53 282.603 2304.16 289.949L2303.12 292.217C2301.69 295.323 2300.34 298.438 2299 301.592L2293 317.592L2254 318.592V346.592C2263.84 346.613 2273.68 346.631 2283.52 346.641L2284.97 346.643C2289.56 346.647 2294.15 346.652 2298.73 346.661L2300.14 346.664C2319.97 346.71 2339.8 346.756 2359.62 346.235L2361.9 346.174C2385.88 345.573 2408.84 342.698 2432.12 336.842L2434.87 336.135L2437.51 335.483C2440.7 334.672 2442.88 334.384 2446 335.592C2446.45 336.61 2446.69 337.146 2446.87 337.703C2447.07 338.325 2447.19 338.972 2447.44 340.342C2447.71 341.61 2447.85 342.262 2448.04 342.9C2448.23 343.575 2448.48 344.235 2449 345.592C2451.72 349.007 2453.14 350.448 2457.5 351.176L2461.5 351.116C2463.71 351.101 2465.93 351.079 2468.15 351.024C2469.67 350.986 2471.2 350.959 2472.72 350.942C2472.96 350.94 2473.2 350.939 2473.44 350.937C2480.02 350.886 2486.5 350.836 2493 349.592C2492.05 346.322 2490.98 343.559 2489.26 340.612C2488.15 338.947 2487.04 337.281 2485.95 335.61L2484.7 333.702C2475.06 319.063 2465.87 304.131 2457.19 288.905C2455.71 286.275 2454.2 283.857 2452.38 281.461C2449.67 279.33 2447.92 279.138 2444.52 279.139L2442.39 279.202C2440.13 279.219 2437.86 279.242 2435.6 279.291C2434.03 279.325 2432.45 279.353 2430.88 279.373C2426.25 279.421 2421.63 279.493 2417 279.592C2417.06 279.932 2417.12 280.271 2417.18 280.608C2417.84 284.238 2418.46 287.696 2420.4 290.905C2424.54 295.453 2426.37 299.72 2428 305.592C2419.52 307.67 2411.03 309.419 2402.4 310.728L2400.38 311.03C2382.83 313.145 2374.06 314.203 2365.27 315.023C2356.47 315.843 2347.65 316.426 2330 317.592C2331.76 313.117 2333.53 308.653 2335.47 304.252L2336.85 301.299L2338.44 297.883L2340.06 294.405C2343.74 286.484 2347.47 278.59 2351.24 270.712L2352.74 267.591C2354.49 263.925 2356.24 260.258 2358 256.592C2375.65 256.49 2393.3 256.383 2410.95 256.269C2419.53 256.214 2428.11 256.159 2436.68 256.11C2444.22 256.067 2451.76 256.022 2459.29 255.972L2460.39 255.964C2464 255.94 2467.61 255.915 2471.22 255.896C2475.03 255.876 2478.84 255.855 2482.65 255.828C2484.05 255.817 2485.45 255.807 2486.85 255.798L2490.86 255.78L2494.49 255.751C2494.99 255.747 2495.48 255.771 2495.98 255.795C2497.84 255.884 2499.62 255.969 2501 254.592C2501.06 252.929 2501.11 251.265 2501.11 249.6L2501.1 247.495C2501.09 245.278 2501.09 243.062 2501.08 240.845C2501.07 239.3 2501.06 237.755 2501.05 236.209C2501.04 231.67 2501.02 227.131 2501 222.592C2473.85 222.57 2446.7 222.552 2419.55 222.542C2406.33 222.537 2393.11 222.532 2379.89 222.52C2368.3 222.51 2356.7 222.502 2345.11 222.499L2343.24 222.499Z" fill="black" class="nav-logo-text"/>
<rect y="362.127" width="149.095" height="33.6667" fill="#595757"/>
<rect x="176.349" y="362.127" width="104.206" height="33.6667" fill="#595757"/>
<path d="M284.515 2.28451C230.969 14.148 178.545 58.2353 144.558 120.118C129.969 146.891 118.266 179.916 118.106 194.665C118.106 221.919 149.368 235.546 169.728 216.95C176.461 210.858 178.064 207.651 181.912 192.261C187.523 170.297 204.837 135.669 221.671 112.743C233.214 97.0321 255.498 75.3893 267.361 68.175C280.187 60.4797 289.485 57.594 302.15 57.594C314.495 57.594 320.907 61.4417 326.679 72.6639C334.855 88.375 331.007 120.438 317.541 149.616C297.661 192.581 251.81 240.035 209.647 261.358C186.561 272.9 174.537 276.267 154.658 276.267C139.909 276.267 135.741 275.786 129.488 272.9C104.96 261.678 91.3327 232.34 95.9819 201.559C97.1041 194.665 99.1883 185.207 100.952 180.397C105.601 166.77 117.945 143.845 129.168 127.973L139.428 113.545V75.0686V36.4321L131.091 43.3258C82.8359 83.2448 47.4057 138.875 37.466 190.016C34.5803 205.407 34.5803 239.554 37.466 253.181C47.566 300.315 75.6216 329.332 120.671 339.112C136.061 342.478 168.445 342.478 184.317 339.112C229.526 329.332 271.209 306.246 309.204 270.015C364.353 217.591 396.256 151.219 396.256 89.6575C396.096 41.402 377.339 11.9036 340.626 2.28451C328.923 -0.761522 298.142 -0.761522 284.515 2.28451Z" fill="#D70A30"/>
<path d="M3.451 418.068V415.777H6.409V418.068H3.451ZM3.451 428.363V426.072H6.409V428.363H3.451ZM9.483 422.94V421.2H12.122V422.94H9.483ZM12.122 421.2H9.483C9.483 420.195 9.20267 419.421 8.642 418.88C8.10067 418.339 7.34667 418.068 6.38 418.068V415.777C7.52067 415.777 8.51633 416.009 9.367 416.473C10.237 416.918 10.9137 417.556 11.397 418.387C11.8803 419.199 12.122 420.137 12.122 421.2ZM12.122 422.911C12.122 423.994 11.8803 424.941 11.397 425.753C10.9137 426.565 10.237 427.203 9.367 427.667C8.51633 428.131 7.52067 428.363 6.38 428.363V426.072C7.34667 426.072 8.10067 425.792 8.642 425.231C9.20267 424.67 9.483 423.897 9.483 422.911H12.122ZM1.74 436.222V415.777H4.379V436.222H1.74ZM25.875 431.263V415.777H28.514V431.263H25.875ZM17.117 431.263V415.777H19.756V431.263H17.117ZM28.514 431.234C28.514 432.297 28.2724 433.245 27.789 434.076C27.3057 434.888 26.629 435.526 25.759 435.99C24.9084 436.435 23.9224 436.657 22.801 436.657V434.366C23.7677 434.366 24.5217 434.095 25.063 433.554C25.6044 432.993 25.875 432.22 25.875 431.234H28.514ZM17.117 431.234H19.756C19.756 432.22 20.0267 432.993 20.568 433.554C21.1287 434.095 21.8924 434.366 22.859 434.366V436.657C21.7377 436.657 20.742 436.435 19.872 435.99C19.002 435.526 18.3254 434.888 17.842 434.076C17.3587 433.245 17.117 432.297 17.117 431.234ZM42.1642 436.222L38.4522 426.246H41.1492L44.8612 436.222H42.1642ZM36.0742 427.551V425.289H39.0322V427.551H36.0742ZM36.0742 418.068V415.777H39.0322V418.068H36.0742ZM42.1062 422.157V421.171H44.7452V422.157H42.1062ZM44.7452 421.2H42.1062C42.1062 420.195 41.8259 419.421 41.2652 418.88C40.7239 418.339 39.9699 418.068 39.0032 418.068V415.777C40.1439 415.777 41.1395 416.009 41.9902 416.473C42.8602 416.918 43.5369 417.556 44.0202 418.387C44.5035 419.199 44.7452 420.137 44.7452 421.2ZM44.7452 422.128C44.7452 423.191 44.5035 424.139 44.0202 424.97C43.5369 425.782 42.8602 426.42 41.9902 426.884C41.1395 427.329 40.1439 427.551 39.0032 427.551V425.289C39.9699 425.289 40.7239 425.009 41.2652 424.448C41.8259 423.887 42.1062 423.114 42.1062 422.128H44.7452ZM34.3632 436.222V415.777H37.0022V436.222H34.3632ZM58.4017 431.64C58.4017 430.925 58.1987 430.296 57.7927 429.755C57.3867 429.194 56.8647 428.672 56.2267 428.189C55.5887 427.706 54.9024 427.213 54.1677 426.71C53.4524 426.207 52.7757 425.656 52.1377 425.057C51.4997 424.458 50.9777 423.781 50.5717 423.027C50.1657 422.254 49.9627 421.364 49.9627 420.359H52.6017C52.6017 421.055 52.8047 421.683 53.2107 422.244C53.6167 422.785 54.1387 423.307 54.7767 423.81C55.4147 424.293 56.0914 424.786 56.8067 425.289C57.5414 425.792 58.2277 426.343 58.8657 426.942C59.5037 427.522 60.0257 428.199 60.4317 428.972C60.8377 429.726 61.0407 430.615 61.0407 431.64H58.4017ZM49.9627 420.417C49.9627 419.354 50.2044 418.445 50.6877 417.691C51.171 416.937 51.8477 416.357 52.7177 415.951C53.5877 415.545 54.5834 415.342 55.7047 415.342V417.604C54.738 417.604 53.9744 417.855 53.4137 418.358C52.8724 418.861 52.6017 419.547 52.6017 420.417H49.9627ZM61.0407 431.582C61.0407 432.626 60.799 433.535 60.3157 434.308C59.8324 435.062 59.1557 435.642 58.2857 436.048C57.435 436.454 56.4394 436.657 55.2987 436.657V434.366C56.2654 434.366 57.0194 434.124 57.5607 433.641C58.1214 433.138 58.4017 432.452 58.4017 431.582H61.0407ZM58.4307 420.156C58.334 419.286 58.0247 418.648 57.5027 418.242C57 417.817 56.4007 417.604 55.7047 417.604V415.342C56.6134 415.342 57.435 415.526 58.1697 415.893C58.9044 416.26 59.5134 416.763 59.9967 417.401C60.48 418.039 60.7797 418.793 60.8957 419.663L58.4307 420.156ZM51.8187 430.48C51.9347 431.698 52.2924 432.655 52.8917 433.351C53.5104 434.028 54.3127 434.366 55.2987 434.366V436.657C53.6554 436.657 52.3117 436.154 51.2677 435.149C50.243 434.144 49.6244 432.752 49.4117 430.973L51.8187 430.48ZM74.9514 431.263V415.777H77.5904V431.263H74.9514ZM66.1934 431.263V415.777H68.8324V431.263H66.1934ZM77.5904 431.234C77.5904 432.297 77.3487 433.245 76.8654 434.076C76.3821 434.888 75.7054 435.526 74.8354 435.99C73.9847 436.435 72.9987 436.657 71.8774 436.657V434.366C72.8441 434.366 73.5981 434.095 74.1394 433.554C74.6807 432.993 74.9514 432.22 74.9514 431.234H77.5904ZM66.1934 431.234H68.8324C68.8324 432.22 69.1031 432.993 69.6444 433.554C70.2051 434.095 70.9687 434.366 71.9354 434.366V436.657C70.8141 436.657 69.8184 436.435 68.9484 435.99C68.0784 435.526 67.4017 434.888 66.9184 434.076C66.4351 433.245 66.1934 432.297 66.1934 431.234ZM83.7296 436.222V415.777H86.3686V436.222H83.7296ZM101.399 436.222L93.2207 415.777H95.8017L103.98 436.222H101.399ZM92.7277 436.222V415.777H95.3667V436.222H92.7277ZM102.095 436.222V415.777H104.734V436.222H102.095ZM115.817 427.638V425.347H121.733V427.638H115.817ZM119.094 431.263V425.434H121.733V431.263H119.094ZM110.307 431.263V420.736H112.946V431.263H110.307ZM110.307 420.736C110.307 419.673 110.549 418.735 111.032 417.923C111.515 417.092 112.192 416.454 113.062 416.009C113.932 415.545 114.928 415.313 116.049 415.313V417.604C115.082 417.604 114.319 417.875 113.758 418.416C113.217 418.957 112.946 419.731 112.946 420.736H110.307ZM110.307 431.234H112.946C112.946 432.239 113.217 433.022 113.758 433.583C114.319 434.124 115.082 434.395 116.049 434.395V436.686C114.928 436.686 113.932 436.454 113.062 435.99C112.192 435.526 111.515 434.888 111.032 434.076C110.549 433.264 110.307 432.317 110.307 431.234ZM119.5 421.49C119.384 420.272 119.017 419.325 118.398 418.648C117.799 417.952 117.006 417.604 116.02 417.604V415.313C117.663 415.313 118.997 415.816 120.022 416.821C121.066 417.826 121.694 419.218 121.907 420.997L119.5 421.49ZM121.733 431.234C121.733 432.317 121.491 433.264 121.008 434.076C120.525 434.888 119.848 435.526 118.978 435.99C118.127 436.454 117.141 436.686 116.02 436.686V434.395C116.987 434.395 117.741 434.124 118.282 433.583C118.823 433.022 119.094 432.239 119.094 431.234H121.733ZM136.939 436.222V433.931H144.972V436.222H136.939ZM137.374 427.203V424.854H143.232V427.203H137.374ZM135.46 415.777H138.099V436.222H135.46V415.777ZM137.229 415.777H144.682V418.068H137.229V415.777ZM152.157 427.203V424.854H158.015V427.203H152.157ZM150.243 415.777H152.882V436.222H150.243V415.777ZM152.012 415.777H159.465V418.068H152.012V415.777ZM166.089 427.203V424.854H171.947V427.203H166.089ZM164.175 415.777H166.814V436.222H164.175V415.777ZM165.944 415.777H173.397V418.068H165.944V415.777ZM179.587 436.222V433.931H187.62V436.222H179.587ZM180.022 427.203V424.854H185.88V427.203H180.022ZM178.108 415.777H180.747V436.222H178.108V415.777ZM179.877 415.777H187.33V418.068H179.877V415.777ZM192.6 431.263V420.736H195.239V431.263H192.6ZM192.6 420.736C192.6 419.673 192.842 418.735 193.325 417.923C193.809 417.092 194.485 416.454 195.355 416.009C196.225 415.545 197.221 415.313 198.342 415.313V417.604C197.376 417.604 196.612 417.875 196.051 418.416C195.51 418.957 195.239 419.731 195.239 420.736H192.6ZM192.6 431.234H195.239C195.239 432.239 195.51 433.022 196.051 433.583C196.612 434.124 197.376 434.395 198.342 434.395V436.686C197.221 436.686 196.225 436.454 195.355 435.99C194.485 435.526 193.809 434.888 193.325 434.076C192.842 433.264 192.6 432.317 192.6 431.234ZM201.793 421.49C201.677 420.272 201.31 419.325 200.691 418.648C200.092 417.952 199.299 417.604 198.313 417.604V415.313C199.957 415.313 201.291 415.816 202.315 416.821C203.359 417.826 203.988 419.218 204.2 420.997L201.793 421.49ZM201.793 430.509L204.2 430.973C203.988 432.771 203.359 434.173 202.315 435.178C201.291 436.183 199.957 436.686 198.313 436.686V434.395C199.299 434.395 200.092 434.057 200.691 433.38C201.31 432.684 201.677 431.727 201.793 430.509ZM207.56 418.068V415.777H219.595V418.068H207.56ZM212.258 436.222V415.777H214.897V436.222H212.258ZM224.586 436.222V415.777H227.225V436.222H224.586ZM237.363 436.222L242.38 415.777H244.961L239.973 436.222H237.363ZM237.305 436.222L232.317 415.777H234.927L239.915 436.222H237.305ZM251.29 436.222V433.931H259.323V436.222H251.29ZM251.725 427.203V424.854H257.583V427.203H251.725ZM249.811 415.777H252.45V436.222H249.811V415.777ZM251.58 415.777H259.033V418.068H251.58V415.777ZM281.195 431.263V415.777H283.834V431.263H281.195ZM272.437 431.263V415.777H275.076V431.263H272.437ZM283.834 431.234C283.834 432.297 283.592 433.245 283.109 434.076C282.625 434.888 281.949 435.526 281.079 435.99C280.228 436.435 279.242 436.657 278.121 436.657V434.366C279.087 434.366 279.841 434.095 280.383 433.554C280.924 432.993 281.195 432.22 281.195 431.234H283.834ZM272.437 431.234H275.076C275.076 432.22 275.346 432.993 275.888 433.554C276.448 434.095 277.212 434.366 278.179 434.366V436.657C277.057 436.657 276.062 436.435 275.192 435.99C274.322 435.526 273.645 434.888 273.162 434.076C272.678 433.245 272.437 432.297 272.437 431.234ZM297.948 431.64C297.948 430.925 297.745 430.296 297.339 429.755C296.933 429.194 296.411 428.672 295.773 428.189C295.135 427.706 294.448 427.213 293.714 426.71C292.998 426.207 292.322 425.656 291.684 425.057C291.046 424.458 290.524 423.781 290.118 423.027C289.712 422.254 289.509 421.364 289.509 420.359H292.148C292.148 421.055 292.351 421.683 292.757 422.244C293.163 422.785 293.685 423.307 294.323 423.81C294.961 424.293 295.637 424.786 296.353 425.289C297.087 425.792 297.774 426.343 298.412 426.942C299.05 427.522 299.572 428.199 299.978 428.972C300.384 429.726 300.587 430.615 300.587 431.64H297.948ZM289.509 420.417C289.509 419.354 289.75 418.445 290.234 417.691C290.717 416.937 291.394 416.357 292.264 415.951C293.134 415.545 294.129 415.342 295.251 415.342V417.604C294.284 417.604 293.52 417.855 292.96 418.358C292.418 418.861 292.148 419.547 292.148 420.417H289.509ZM300.587 431.582C300.587 432.626 300.345 433.535 299.862 434.308C299.378 435.062 298.702 435.642 297.832 436.048C296.981 436.454 295.985 436.657 294.845 436.657V434.366C295.811 434.366 296.565 434.124 297.107 433.641C297.667 433.138 297.948 432.452 297.948 431.582H300.587ZM297.977 420.156C297.88 419.286 297.571 418.648 297.049 418.242C296.546 417.817 295.947 417.604 295.251 417.604V415.342C296.159 415.342 296.981 415.526 297.716 415.893C298.45 416.26 299.059 416.763 299.543 417.401C300.026 418.039 300.326 418.793 300.442 419.663L297.977 420.156ZM291.365 430.48C291.481 431.698 291.838 432.655 292.438 433.351C293.056 434.028 293.859 434.366 294.845 434.366V436.657C293.201 436.657 291.858 436.154 290.814 435.149C289.789 434.144 289.17 432.752 288.958 430.973L291.365 430.48ZM307.417 436.222V433.931H315.45V436.222H307.417ZM307.852 427.203V424.854H313.71V427.203H307.852ZM305.938 415.777H308.577V436.222H305.938V415.777ZM307.707 415.777H315.16V418.068H307.707V415.777ZM337.235 431.234V420.736H339.874V431.234H337.235ZM328.419 431.234V420.736H331.058V431.234H328.419ZM339.874 420.765H337.235C337.235 419.76 336.955 418.986 336.394 418.445C335.853 417.904 335.099 417.633 334.132 417.633V415.342C335.273 415.342 336.268 415.574 337.119 416.038C337.989 416.483 338.666 417.121 339.149 417.952C339.632 418.764 339.874 419.702 339.874 420.765ZM328.419 420.765C328.419 419.702 328.661 418.764 329.144 417.952C329.627 417.121 330.304 416.483 331.174 416.038C332.044 415.574 333.04 415.342 334.161 415.342V417.633C333.194 417.633 332.431 417.904 331.87 418.445C331.329 418.986 331.058 419.76 331.058 420.765H328.419ZM339.874 431.205C339.874 432.288 339.632 433.235 339.149 434.047C338.666 434.859 337.989 435.497 337.119 435.961C336.268 436.425 335.273 436.657 334.132 436.657V434.366C335.099 434.366 335.853 434.095 336.394 433.554C336.955 432.993 337.235 432.21 337.235 431.205H339.874ZM328.419 431.205H331.058C331.058 432.21 331.329 432.993 331.87 433.554C332.431 434.095 333.194 434.366 334.161 434.366V436.657C333.04 436.657 332.044 436.425 331.174 435.961C330.304 435.497 329.627 434.859 329.144 434.047C328.661 433.235 328.419 432.288 328.419 431.205ZM347.497 427.203V424.854H353.355V427.203H347.497ZM345.583 415.777H348.222V436.222H345.583V415.777ZM347.352 415.777H354.805V418.068H347.352V415.777ZM369.129 436.222V433.931H376.582V436.222H369.129ZM367.36 436.222V415.777H369.999V436.222H367.36ZM383.352 432.133V429.871H390.776V432.133H383.352ZM388.021 415.777L383.033 436.222H380.423L385.411 415.777H388.021ZM388.079 415.777L393.067 436.222H390.486L385.469 415.777H388.079ZM406.587 436.222L398.409 415.777H400.99L409.168 436.222H406.587ZM397.916 436.222V415.777H400.555V436.222H397.916ZM407.283 436.222V415.777H409.922V436.222H407.283ZM423.784 430.799V421.2H426.423V430.799H423.784ZM417.839 436.222V433.931H420.71V436.222H417.839ZM417.839 418.068V415.777H420.71V418.068H417.839ZM417.839 418.068V415.777H420.71V418.068H417.839ZM426.423 421.2H423.784C423.784 420.195 423.514 419.421 422.972 418.88C422.431 418.339 421.677 418.068 420.71 418.068V415.777C421.832 415.777 422.818 416.009 423.668 416.473C424.538 416.918 425.215 417.556 425.698 418.387C426.182 419.199 426.423 420.137 426.423 421.2ZM426.423 430.77C426.423 431.853 426.182 432.8 425.698 433.612C425.215 434.424 424.538 435.062 423.668 435.526C422.818 435.99 421.832 436.222 420.71 436.222V433.931C421.677 433.931 422.431 433.66 422.972 433.119C423.514 432.558 423.784 431.775 423.784 430.77H426.423ZM415.983 436.222V415.777H418.622V436.222H415.983Z" fill="black"/>
</svg>
