<svg width="350" height="22" viewBox="0 0 350 22" fill="none" xmlns="http://www.w3.org/2000/svg">
<path d="M252.744 0L252.745 0.000507324C252.585 0.00101079 252.423 0.00430834 252.257 0.010103C252.002 0.0186525 251.747 0.0275769 251.492 0.0364113C249.648 0.091413 247.766 0.114876 245.869 0.107371C243.689 0.0963521 241.508 0.0845766 239.329 0.0741272C237.02 0.0628229 234.712 0.0511375 232.401 0.0379333C230.106 0.025964 227.807 0.0101972 225.519 0.0101972C222.772 0.0158969 220.029 0.0347031 217.378 0.146711C214.822 0.267648 212.318 0.435867 209.697 0.498677C206.422 0.601451 203.111 0.673416 199.729 0.655063C193.604 0.661713 187.492 0.688122 181.325 0.637206C168.414 0.56957 155.506 0.510672 142.719 0.609941C137.438 0.643569 132.171 0.692969 126.898 0.735032C126.28 0.712138 125.661 0.686959 125.04 0.655136C123.889 0.58921 122.996 0.642409 122.347 0.769805C121.972 0.771705 121.598 0.776458 121.223 0.778358C117.217 0.800966 110.841 0.808564 106.775 0.816639C104.7 0.820438 102.627 0.825187 100.553 0.830032C91.4776 0.857485 82.3954 0.881422 73.4255 1.03704C72.9618 1.05053 72.3783 1.06041 71.7854 1.07732C63.4025 0.939534 55.0334 0.823448 46.6847 0.742722C42.6853 0.68297 38.6816 0.611292 34.6748 0.538698C33.9049 0.524734 32.6277 0.291641 32.3677 0.500409C32.3402 0.522733 32.3313 0.529765 32.3041 0.551519C32.8601 0.576312 33.1178 0.587708 33.2015 0.608607C32.9022 0.589323 32.6036 0.573462 32.3041 0.551519H32.3026C29.476 2.81716 29.2276 2.72913 32.4935 3.02123C32.7343 3.03643 32.9744 3.0485 33.2151 3.06294C30.1062 3.16155 26.9893 3.25306 23.8579 3.33051C18.82 3.45097 13.7189 3.50375 8.57374 3.49632C4.14939 3.48967 2.65889 3.07554 7.00031 5.93973C7.0097 5.9631 7.01997 5.98295 7.02906 6.0068C7.03493 6.02276 7.07901 6.02579 7.13061 6.02513C7.48842 6.24527 8.58643 6.04498 9.31038 6.05743C12.8571 6.10208 16.3747 6.10692 19.8772 6.09172C20.0035 6.29396 20.3319 6.60405 20.7594 7.03294C19.3826 7.15874 18.1515 7.36618 17.514 7.73986C13.4531 7.67897 9.39447 7.62114 5.33131 7.55667C-0.73469 7.62602 -1.29012 7.12329 1.98285 10.1038C2.16833 10.2727 3.05072 10.1907 3.58356 10.2185C3.79799 10.2297 4.01215 10.2386 4.22627 10.2487C4.10228 10.2613 4.02998 10.2844 4.07013 10.3317C6.47277 13.1533 5.63489 12.806 10.8232 12.8332C13.0367 12.8125 15.2476 12.7897 17.4595 12.7671C17.698 12.9018 18.0385 13.0673 18.4917 13.2685C18.2727 13.646 18.1681 13.9283 18.181 14.1333C17.6759 14.1337 17.1265 14.1342 16.6424 14.1343C12.7105 14.1438 8.79591 14.1784 4.91597 14.2504C4.2587 14.2626 3.59252 14.2667 2.95297 14.296C2.50124 14.3168 1.46679 14.2477 1.65239 14.4003C2.66224 15.2304 4.47405 15.9908 5.92552 16.7826C5.94605 16.7818 5.96716 16.7817 5.98767 16.7807C5.98964 16.7845 5.99325 16.7883 5.9953 16.7921C5.99882 16.7988 5.98914 16.8037 5.97565 16.808C6.00545 16.8244 6.04012 16.8407 6.06963 16.8571C8.26314 16.8037 10.4611 16.7568 12.6635 16.7132C12.1873 17.4836 14.4015 18.5711 17.9689 18.5047C23.9204 18.4407 29.8553 18.3582 35.8011 18.2878C35.7193 18.3766 35.6386 18.466 35.5465 18.5529C37.1882 18.91 38.7089 19.368 40.4714 19.6242C41.4046 19.7598 42.3578 19.6657 43.2969 19.6793C44.4955 19.6966 45.6903 19.7055 46.8849 19.7165C49.8196 19.7437 52.7484 19.7621 55.6782 19.7821C56.3771 19.9518 57.3114 20.0517 58.4795 20.0303C62.8799 19.9834 67.2786 19.9256 71.6778 19.8709C73.2304 19.8785 74.7835 19.887 76.3359 19.8943C76.2331 19.956 76.1311 20.0181 76.0222 20.0785C77.3989 20.4356 78.5788 20.8936 80.1513 21.1498C80.9839 21.2854 82.0069 21.1913 82.9359 21.2048C84.1216 21.2221 85.3086 21.2311 86.495 21.2421C90.753 21.2819 95.0118 21.3092 99.2705 21.3379C109.555 21.3945 119.839 21.4365 130.124 21.4903C140.67 21.5338 151.217 21.5079 161.762 21.455C163.549 21.4413 165.335 21.4234 167.122 21.4058C178.255 21.7265 189.828 21.9202 201.474 21.9807C227.795 22.1133 253.411 21.5604 274.335 20.408C276.317 20.3586 278.297 20.2994 280.276 20.2392C283.267 20.153 286.25 20.0518 289.251 20.0074C291.362 19.9797 293.476 19.9878 295.589 19.9969C297.387 20.0026 299.186 20.0186 300.984 20.0288C304.478 20.0456 304.59 19.9014 303.545 18.5579C305.271 18.5319 306.96 18.5053 308.687 18.477C310.248 18.4877 311.259 18.5029 311.864 18.4214C312.36 18.4105 312.855 18.3988 313.351 18.3911C313.555 18.3883 314.006 18.4601 313.962 18.3949C313.586 17.8317 313.351 17.4227 313.145 17.0749C313.186 16.9279 313.243 16.756 313.294 16.5765C315.434 16.5498 317.574 16.5249 319.715 16.4962C326.936 16.4225 329.103 16.3852 336.013 16.3666C337.746 16.3619 339.986 16.7728 341.211 16.3714C341.397 16.3103 341.56 16.2443 341.711 16.1758C342.707 16.3506 343.698 16.5255 343.616 16.3967C343.345 15.9704 343.25 15.4977 342.993 15.0538C343.226 14.6565 343.367 14.2438 343.637 13.8654C343.723 13.7463 342.816 13.9009 341.853 14.0689C341.699 13.9976 341.531 13.9284 341.336 13.8654C340.449 13.5777 339.059 13.7024 337.691 13.8103C338.468 13.2899 338.083 12.6105 336.634 12.2421C336.636 11.8506 336.428 11.5432 336.064 11.2979C336.079 11.2357 336.085 11.1729 336.11 11.1117C336.058 11.1124 336.006 11.1124 335.954 11.1127C336.046 10.9531 336.01 10.8159 335.86 10.6972C339.049 10.6377 342.23 10.5429 345.414 10.4574C345.923 10.4307 346.439 10.4252 346.957 10.4212C347.351 10.4512 347.734 10.478 347.868 10.4116C348.191 10.4069 348.513 10.4002 348.831 10.3853C349.224 10.3669 350.045 10.4349 349.998 10.3059C349.275 8.32628 349.722 7.91085 348.326 7.85353C348.361 7.81762 348.16 7.82988 347.921 7.84973C347.454 7.84783 346.872 7.86027 346.028 7.8731C345.045 7.90112 344.061 7.92572 343.077 7.95099C343.278 7.45885 342.637 6.9298 340.885 6.65383C341.341 6.63455 341.797 6.61403 342.251 6.58933C342.672 6.56634 343.535 6.64338 343.506 6.50393C342.895 3.6362 343.709 3.97342 338.444 4.06053C336.613 4.10176 334.781 4.14175 332.95 4.18414C332.007 4.20599 331.804 4.21093 331.026 4.22926C331.223 3.94363 331.151 3.89144 330.282 3.88473C330.279 3.85889 330.14 3.87903 330.044 3.88423C329.936 3.8841 329.814 3.88352 329.686 3.88374C329.315 3.88184 328.894 3.879 328.592 3.8771C328.296 3.8752 328.001 3.87234 327.705 3.86949C325.256 3.84508 322.806 3.81202 320.365 3.74191C317.53 3.66173 314.689 3.62056 311.848 3.56767C311.304 3.56007 310.76 3.55447 310.217 3.54934C311.935 2.8056 310.67 1.51407 306.988 1.52541C306.827 1.52591 306.662 1.5297 306.492 1.53549C306.231 1.54404 305.969 1.55298 305.707 1.56181C303.823 1.61672 301.924 1.64027 300.033 1.63277C297.862 1.62175 295.689 1.60998 293.517 1.59953C291.216 1.58822 288.917 1.57654 286.617 1.56333C284.33 1.55136 282.042 1.53559 279.755 1.53559C277.002 1.54129 274.246 1.5601 271.511 1.67211C268.866 1.79305 266.239 1.96124 263.572 2.02407C262.859 2.04601 262.145 2.06511 261.431 2.08364C260.661 2.07015 259.89 2.05665 259.12 2.0424C258.571 2.03481 258.024 2.0292 257.476 2.02407C258.643 1.28033 256.418 -0.0113328 252.744 0ZM5.97565 16.808C5.95981 16.7994 5.94107 16.7912 5.92552 16.7826C5.76985 16.7883 5.61358 16.7934 5.45872 16.8C5.30457 16.8067 5.86584 16.8419 5.97565 16.808ZM8.37668 12.7552C8.24794 12.785 7.89883 12.7758 7.67637 12.7671C7.9147 12.7737 8.14664 12.7652 8.37668 12.7552Z" fill="#FFD2D2" fill-opacity="0.5"/>
<path d="M39.344 10.864H46.624L47.408 9.904C47.408 9.904 48.32 10.576 48.88 11.072C48.848 11.248 48.672 11.328 48.448 11.328H39.472L39.344 10.864ZM39.024 14.352H47.2L48.032 13.344C48.032 13.344 48.976 14.048 49.568 14.56C49.52 14.736 49.36 14.816 49.152 14.816H39.152L39.024 14.352ZM37.04 18.256H48.688L49.552 17.152C49.552 17.152 50.56 17.904 51.168 18.464C51.12 18.64 50.96 18.72 50.736 18.72H37.168L37.04 18.256ZM43.28 10.864H44.608V18.464H43.28V10.864ZM44.448 5.536C42.912 7.968 39.68 10.672 36.624 12.096L36.496 11.872C39.2 10.208 42.4 6.816 43.216 4.464L45.424 5.024C45.392 5.216 45.184 5.296 44.752 5.344C46.192 7.408 48.96 9.024 51.648 10.096L51.616 10.336C51.024 10.464 50.592 10.976 50.464 11.488C47.936 10.128 45.552 8 44.448 5.536ZM61.744 14.528C67.232 16.688 66.304 20.192 64.688 19.088C64.256 17.616 62.784 15.792 61.568 14.656L61.744 14.528ZM53.36 12.928H64.16L65.072 11.824C65.072 11.824 66.096 12.592 66.72 13.152C66.672 13.312 66.512 13.392 66.272 13.392H53.504L53.36 12.928ZM56.032 10.08H61.488L62.336 9.008C62.336 9.008 63.312 9.744 63.92 10.272C63.888 10.448 63.712 10.528 63.488 10.528H56.16L56.032 10.08ZM53.712 17.52C55.616 17.472 59.872 17.216 64.496 16.912L64.512 17.168C62.32 17.632 59.312 18.144 54.96 18.816C54.864 19.008 54.688 19.12 54.512 19.152L53.712 17.52ZM57.936 13.136H59.744C58.848 14.768 57.504 16.88 56.464 18.032H56.048C56.688 16.832 57.536 14.592 57.936 13.136ZM60.4 5.536C58.96 7.776 55.744 10.176 52.64 11.408L52.528 11.184C55.264 9.712 58.336 6.656 59.12 4.464L61.392 5.008C61.328 5.216 61.136 5.296 60.688 5.344C62.112 7.216 64.896 8.816 67.504 9.648L67.472 9.904C66.848 10.048 66.416 10.608 66.288 11.136C63.744 9.952 61.472 7.824 60.4 5.536ZM71.504 11.52H80.848V11.984H71.504V11.52ZM72.128 7.84H79.904V8.304H72.128V7.84ZM71.504 13.504H80.88V13.968H71.504V13.504ZM71.504 15.504H80.912V15.984H71.504V15.504ZM80.144 9.6H79.984L80.656 8.848L82.128 9.968C82.016 10.096 81.776 10.224 81.456 10.288V16.208C81.44 16.32 80.784 16.608 80.352 16.608H80.144V9.6ZM70.64 9.6V8.992L72.048 9.6H80.72V10.048H71.936V16.448C71.936 16.592 71.392 16.896 70.848 16.896H70.64V9.6ZM79.488 5.392H79.328L79.984 4.672L81.44 5.76C81.344 5.888 81.088 6.016 80.768 6.08V8.496C80.752 8.592 80.096 8.832 79.696 8.832H79.488V5.392ZM71.264 5.392V4.816L72.624 5.392H79.92V5.856H72.528V8.64C72.528 8.752 71.952 9.024 71.44 9.024H71.264V5.392ZM74.848 17.44C73.456 18.256 71.264 19.024 68.864 19.312L68.752 19.088C70.832 18.48 72.88 17.28 73.84 16.352L75.632 17.232C75.552 17.392 75.328 17.472 74.848 17.44ZM77.216 16.656C83.104 16.832 83.536 19.504 82.016 19.328C80.944 18.48 78.672 17.376 77.12 16.896L77.216 16.656ZM84.688 7.872H90.608L91.424 6.832C91.424 6.832 92.32 7.568 92.88 8.08C92.848 8.256 92.688 8.336 92.464 8.336H84.816L84.688 7.872ZM87.92 4.592L89.76 4.752C89.744 4.976 89.584 5.136 89.184 5.2V8.064H87.92V4.592ZM89.52 7.872H90.976C90.416 12.688 88.832 16.672 84.512 19.232L84.368 19.04C87.808 16.24 89.2 12.304 89.52 7.872ZM85.664 10.032C92.48 13.824 91.648 18.096 90 16.832C89.52 14.624 87.296 11.856 85.456 10.192L85.664 10.032ZM91.744 8.864H97.568L98.304 7.792C98.304 7.792 99.152 8.544 99.632 9.072C99.584 9.248 99.44 9.328 99.232 9.328H91.872L91.744 8.864ZM96.144 4.736L98 4.928C97.952 5.168 97.792 5.312 97.408 5.376V17.552C97.408 18.528 97.2 19.136 95.488 19.312C95.424 18.896 95.328 18.576 95.104 18.368C94.832 18.144 94.416 18 93.632 17.888V17.648C93.632 17.648 95.392 17.776 95.744 17.776C96.048 17.776 96.144 17.68 96.144 17.424V4.736ZM92.576 10.48C96.08 12.528 94.752 15.344 93.552 14.16C93.568 12.976 92.976 11.536 92.384 10.576L92.576 10.48ZM103.296 6.32V6.016C103.728 5.904 104.08 5.84 104.4 5.84C105.248 5.872 106.48 6.8 106.48 7.312C106.48 7.68 106.128 7.824 105.984 8.592C105.712 10.112 105.408 12.592 105.408 14.672C105.408 16.64 105.968 17.392 107.776 17.392C110.4 17.392 112.704 15.744 113.856 14.032L114.192 14.256C113.056 16.8 110.672 18.688 107.696 18.688C105.52 18.688 104.336 17.6 104.336 14.8C104.336 12.368 104.704 8.752 104.704 7.76C104.704 7.12 104.624 6.912 104.336 6.72C104.096 6.56 103.744 6.432 103.296 6.32ZM117.456 7.888C117.696 8.288 118.096 8.688 118.48 8.688C119.344 8.688 122.224 7.856 124.896 7.216C126.704 6.8 128.064 6.528 128.608 6.528C129.04 6.528 129.504 6.576 129.808 6.72C130.176 6.896 130.368 7.104 130.368 7.376C130.368 7.648 130.128 7.888 129.744 7.888C129.392 7.888 128.896 7.824 128.352 7.824C127.584 7.824 126.512 7.92 125.696 8.448C125.008 8.88 123.488 10.304 123.488 13.376C123.488 15.152 124.224 15.84 124.848 16.208C125.856 16.784 127.232 16.704 127.84 16.704C128.256 16.704 128.848 17.04 128.848 17.488C128.848 17.984 128.304 18.128 127.584 18.128C126.56 18.128 125.088 18.048 124.032 17.264C123.008 16.544 122.416 15.552 122.416 13.68C122.416 11.664 123.136 9.584 124.96 8.224C125.072 8.128 125.056 8.032 124.88 8.08C123.056 8.512 120.816 9.28 119.84 9.76C119.52 9.92 119.2 10.208 118.832 10.208C118.192 10.208 117.312 9.392 117.184 8.784C117.136 8.496 117.168 8.224 117.184 7.968L117.456 7.888ZM132.592 8.352H136.544L137.264 7.36C137.264 7.36 138.096 8.064 138.592 8.576C138.544 8.752 138.384 8.832 138.176 8.832H132.72L132.592 8.352ZM138.176 7.216H145.008L145.776 6.256C145.776 6.256 146.656 6.928 147.2 7.424C147.152 7.6 146.992 7.68 146.784 7.68H138.304L138.176 7.216ZM137.952 11.424H145.232L146.016 10.416C146.016 10.416 146.912 11.12 147.456 11.632C147.408 11.808 147.248 11.888 147.024 11.888H138.064L137.952 11.424ZM138.64 9.232H144.608L145.376 8.288C145.376 8.288 146.256 8.944 146.784 9.44C146.736 9.616 146.592 9.696 146.368 9.696H138.768L138.64 9.232ZM134.816 8.352H136.096V8.608C135.568 11.344 134.48 13.712 132.656 15.616L132.448 15.392C133.712 13.456 134.448 10.896 134.816 8.352ZM134.912 4.56L136.736 4.752C136.688 4.992 136.56 5.136 136.144 5.2V18.864C136.144 19.008 135.648 19.28 135.184 19.28H134.912V4.56ZM136.144 10.608C139.216 12.08 138.096 14.16 137.088 13.264C136.96 12.448 136.416 11.376 135.968 10.704L136.144 10.608ZM139.616 4.608C142.736 5.616 141.584 7.904 140.48 6.992C140.416 6.208 139.904 5.28 139.44 4.688L139.616 4.608ZM144.016 4.528L145.808 5.04C145.744 5.232 145.552 5.36 145.216 5.344C144.72 5.92 143.968 6.752 143.296 7.376H143.024C143.344 6.576 143.776 5.36 144.016 4.528ZM138.784 12.48C141.936 13.408 140.832 15.648 139.744 14.768C139.696 14.032 139.136 13.12 138.608 12.592L138.784 12.48ZM137.296 17.072C138.064 16.768 139.888 15.92 141.728 15.04L141.824 15.232C141.072 15.856 140 16.784 138.544 17.904C138.528 18.096 138.432 18.272 138.288 18.352L137.296 17.072ZM145.6 12.304L147.088 13.28C146.976 13.44 146.848 13.504 146.496 13.392C145.856 13.888 144.848 14.56 143.936 15.04L143.744 14.848C144.4 14.112 145.232 12.976 145.6 12.304ZM142.944 12.272C143.648 15.376 145.648 16.576 147.648 17.232L147.632 17.408C147.168 17.536 146.816 17.984 146.672 18.576C144.656 17.408 143.376 15.856 142.784 12.352L142.944 12.272ZM141.744 7.216H142.976V17.632C142.976 18.512 142.768 19.152 141.264 19.296C141.232 18.928 141.168 18.624 140.976 18.448C140.784 18.256 140.448 18.128 139.808 18.032V17.808C139.808 17.808 141.12 17.904 141.408 17.904C141.664 17.904 141.744 17.808 141.744 17.6V7.216ZM149.888 15.424C151.072 14.224 152.24 12.88 153.184 11.568C154 10.432 154.912 8.896 155.264 7.952C155.36 7.712 155.344 7.584 155.12 7.376C154.864 7.152 154.528 6.992 154.176 6.816L154.288 6.512C154.976 6.528 155.472 6.592 155.968 6.848C156.448 7.104 157.072 7.648 157.072 7.984C157.072 8.336 156.688 8.384 156.4 8.848C155.856 9.68 154.928 11.04 154.016 12.096C152.992 13.296 151.68 14.72 150.192 15.728L149.888 15.424ZM158.512 10.192C158.976 10.128 159.136 9.792 159.408 9.792C159.856 9.792 160.992 10.816 160.992 11.28C160.992 11.648 160.384 11.76 160.112 12.08C159.28 12.96 158.176 14.288 156.816 15.568L156.288 15.152C157.504 13.744 158.544 12.208 159.024 11.216C159.12 11.008 159.072 10.944 158.864 10.96C158.304 10.96 156.704 11.136 156.128 11.232C155.792 11.28 155.632 11.376 155.44 11.376C155.264 11.376 154.992 11.152 154.704 10.864L154.848 10.352C155.088 10.384 155.28 10.416 155.616 10.416C156.16 10.416 158 10.256 158.512 10.192ZM153.872 13.504C156.144 14.352 157.6 15.584 158.32 16.352C158.672 16.736 159.072 17.28 159.072 17.712C159.072 18.128 158.896 18.48 158.432 18.48C158 18.48 157.84 18.208 157.536 17.68C156.544 16.048 155.248 14.976 153.648 13.808L153.872 13.504ZM174.256 8.656L174.272 8.288C175.088 8.128 175.936 8.176 176.56 8.4C177.568 8.768 178.112 9.424 178.112 10.128C178.112 10.544 177.952 10.8 177.584 10.8C177.136 10.8 176.832 10.464 176.08 10.512C175.552 10.56 174.992 10.752 174.672 11.104C174.368 11.472 174.32 11.984 174.368 12.576C174.416 13.36 174.848 15.488 174.848 16.656C174.848 18.016 173.824 18.784 172.144 18.784C170.448 18.784 169.504 17.936 169.504 16.944C169.504 15.696 170.8 14.72 172.976 14.72C174.784 14.72 176.144 15.36 177.04 15.952C177.888 16.464 178.32 16.976 178.32 17.456C178.32 17.872 178.112 18.08 177.824 18.08C177.472 18.08 177.264 17.76 176.848 17.376C175.808 16.4 174.4 15.552 172.304 15.552C170.88 15.552 170.16 16.16 170.16 16.72C170.16 17.264 170.672 17.696 171.824 17.696C173.248 17.696 173.68 17.008 173.68 16.064C173.696 15.072 173.536 13.84 173.536 12.88C173.536 11.952 173.76 11.328 174.256 10.8C174.8 10.208 175.536 9.936 176.08 9.696C176.336 9.536 176.288 9.344 176.032 9.152C175.616 8.832 174.992 8.672 174.256 8.656ZM165.76 7.552C166.432 8.112 166.848 8.464 167.92 8.464C168.656 8.464 169.488 8.272 169.936 8.144C171.792 7.632 172.176 7.184 172.48 7.184C172.832 7.184 173.136 7.424 173.136 7.744C173.136 8.064 172.816 8.272 172.608 8.4C171.728 8.88 169.504 9.504 167.776 9.504C166.544 9.504 165.984 9.072 165.488 7.744L165.76 7.552ZM168.48 5.776V5.52C168.768 5.408 169.184 5.296 169.536 5.296C170.016 5.296 170.496 5.424 170.8 5.616C171.104 5.824 170.96 6.208 170.288 8.496C169.856 9.92 168.624 13.472 167.12 15.728C166.848 16.128 166.624 16.432 166.272 16.432C165.888 16.432 165.696 16.048 165.696 15.68C165.696 15.376 165.776 15.136 166.016 14.832C167.072 13.472 168.432 11.44 169.12 9.008C169.36 8.208 169.552 7.248 169.568 6.688C169.584 6.352 169.504 6.192 169.232 6.064C168.992 5.92 168.688 5.84 168.48 5.776ZM185.632 9.84H193.248L194.08 8.72C194.08 8.72 195.008 9.504 195.552 10.048C195.504 10.224 195.344 10.304 195.12 10.304H185.76L185.632 9.84ZM185.696 12.512H193.424L194.176 11.472C194.176 11.472 195.008 12.208 195.504 12.72C195.488 12.896 195.328 12.976 195.104 12.976H185.824L185.696 12.512ZM186.48 6.912H192.576L193.36 5.856C193.36 5.856 194.256 6.608 194.8 7.12C194.752 7.296 194.592 7.376 194.384 7.376H186.608L186.48 6.912ZM189.632 4.592L191.488 4.752C191.456 4.976 191.312 5.136 190.896 5.2V10.016H189.632V4.592ZM191.712 10.464L193.536 10.656C193.488 10.88 193.344 11.008 192.976 11.056V17.568C192.976 18.544 192.752 19.136 191.008 19.296C190.944 18.896 190.848 18.592 190.592 18.384C190.32 18.176 189.872 18.048 189.056 17.92V17.68C189.056 17.68 190.976 17.808 191.328 17.808C191.632 17.808 191.712 17.712 191.712 17.488V10.464ZM186.992 13.52C190.912 14.592 189.856 17.264 188.544 16.352C188.32 15.424 187.52 14.304 186.832 13.632L186.992 13.52ZM183.232 4.544L185.008 4.72C184.976 4.96 184.848 5.12 184.432 5.184V18.816C184.432 18.992 183.92 19.296 183.456 19.296H183.232V4.544ZM181.488 5.712L183.2 6.048C183.136 6.24 182.976 6.4 182.64 6.416C182.288 8.256 181.712 10.08 180.832 11.28L180.56 11.152C181.072 9.696 181.408 7.648 181.488 5.712ZM180.464 13.04C181.52 12.816 184.16 12.032 186.816 11.2L186.88 11.424C185.68 12.096 183.936 13.072 181.536 14.224C181.472 14.4 181.344 14.56 181.184 14.624L180.464 13.04ZM181.744 8.4H184.8L185.568 7.296C185.568 7.296 186.448 8.064 186.96 8.608C186.912 8.784 186.768 8.864 186.544 8.864H181.744V8.4ZM196.528 14.816H209.52L210.272 13.76C210.272 13.76 211.12 14.496 211.616 15.024C211.568 15.2 211.424 15.28 211.2 15.28H196.656L196.528 14.816ZM205.632 15.872C213.072 17.248 210.944 20.176 209.68 19.024C208.976 18.112 207.6 17.008 205.52 16.112L205.632 15.872ZM201.488 15.648L203.216 16.544C203.104 16.72 202.848 16.784 202.416 16.704C201.184 17.68 199.008 18.752 196.832 19.296L196.72 19.056C198.608 18.256 200.592 16.768 201.488 15.648ZM201.696 4.704L203.36 4.864C203.328 5.056 203.232 5.184 202.912 5.248V14.992H201.696V4.704ZM204.896 4.704L206.56 4.864C206.528 5.056 206.416 5.184 206.112 5.248V14.992H204.896V4.704ZM198.528 7.184V6.608L199.952 7.184H207.968L208.608 6.368L210.16 7.504C210.048 7.68 209.84 7.776 209.44 7.824V15.12H208.144V7.664H199.776V15.12H198.528V7.184ZM199.296 10.896H208.752V11.344H199.296V10.896ZM224.816 8.272C224.496 7.856 224.064 7.328 223.344 6.8L223.552 6.528C224.384 6.832 225.04 7.168 225.472 7.568C225.84 7.92 226 8.192 226 8.512C226 8.8 225.824 8.976 225.568 8.976C225.296 8.976 225.104 8.656 224.816 8.272ZM226.288 7.088C225.952 6.688 225.584 6.288 224.816 5.744L224.992 5.488C225.84 5.744 226.496 6.048 226.896 6.368C227.328 6.704 227.488 7.024 227.488 7.36C227.488 7.648 227.344 7.824 227.072 7.824C226.8 7.824 226.624 7.472 226.288 7.088ZM216.432 16.08C217.264 16.576 217.952 16.96 218.352 16.96C218.848 16.96 219.184 16.8 219.552 16.208C220.16 15.36 220.704 13.312 220.704 11.552C220.704 10.48 220.432 10 219.584 10C218.592 10 216.48 10.752 215.6 11.12C214.944 11.376 214.704 11.552 214.304 11.552C213.856 11.552 213.216 10.88 213.104 10.32C213.04 10.032 213.088 9.664 213.184 9.36L213.472 9.296C213.68 9.76 213.808 10.224 214.256 10.224C214.88 10.224 216.624 9.76 217.952 9.504C218.416 9.408 219.28 9.264 219.84 9.264C221.056 9.264 221.792 9.968 221.792 11.904C221.792 13.888 221.232 16.144 220.224 17.36C219.744 17.936 219.056 18.336 218.24 18.336C217.68 18.336 217.536 18.112 217.344 17.552C217.232 17.296 217.12 17.104 216.272 16.336L216.432 16.08ZM216.656 6.384V6.064C216.944 5.936 217.312 5.808 217.824 5.808C218.496 5.808 219.76 6.384 219.76 6.832C219.76 7.216 219.408 7.408 219.216 7.84C218.784 8.896 217.696 11.568 216.768 13.504C215.92 15.232 215.056 16.944 214.416 17.936C214.144 18.384 213.936 18.512 213.648 18.512C213.376 18.512 213.072 18.24 213.072 17.808C213.072 17.472 213.136 17.28 213.376 16.976C214.224 15.888 214.976 14.736 215.84 13.04C216.928 10.896 218.112 7.68 218.112 7.088C218.112 6.896 218.064 6.752 217.872 6.656C217.616 6.528 217.056 6.432 216.656 6.384ZM222.72 9.616L222.88 9.264C224.112 9.408 224.992 9.808 225.68 10.544C226.352 11.232 226.752 12.304 226.752 13.536C226.752 14.272 226.512 14.848 225.968 14.848C225.488 14.864 225.504 14.4 225.008 14.272C224.672 14.192 223.712 14.208 223.168 14.256L223.088 13.904C223.696 13.776 224.576 13.584 224.992 13.424C225.344 13.296 225.424 13.136 225.408 12.72C225.376 12.288 225.232 11.568 224.784 10.896C224.336 10.272 223.712 9.824 222.72 9.616ZM240.528 7.584C240.832 8 241.008 8.304 241.264 8.32C241.536 8.32 241.712 8.144 241.712 7.856C241.712 7.552 241.568 7.248 241.184 6.912C240.768 6.512 240.112 6.16 239.28 5.856L239.072 6.128C239.776 6.656 240.208 7.184 240.528 7.584ZM241.968 6.448C242.304 6.848 242.48 7.184 242.752 7.184C243.008 7.184 243.152 7.024 243.152 6.736C243.152 6.384 242.992 6.08 242.576 5.744C242.16 5.424 241.52 5.12 240.672 4.864L240.496 5.104C241.248 5.664 241.616 6.064 241.968 6.448ZM231.664 7.168C232.688 8.56 233.904 8.72 235.712 8.72C235.936 8.72 235.952 8.768 235.792 8.88C235.232 9.28 234.288 9.92 233.536 10.416L233.728 10.72C234.912 10.144 236.384 9.456 237.216 9.184C237.952 8.928 238.48 8.848 238.944 8.768C239.392 8.688 239.584 8.528 239.584 8.192C239.584 7.76 238.624 7.392 237.984 7.392C237.328 7.392 236.944 7.76 234.976 7.76C233.712 7.76 232.976 7.616 231.888 6.896L231.664 7.168ZM231.504 13.424C231.552 15.52 232.032 17.04 235.568 17.04C238.256 17.04 239.424 16.4 239.856 16.4C240.304 16.4 240.928 16.656 240.928 17.088C240.928 17.44 240.752 17.6 240.224 17.792C239.44 18.064 237.968 18.32 235.856 18.32C231.6 18.32 230.448 16.32 231.104 13.44L231.504 13.424ZM257.056 7.36C256.72 6.96 256.304 6.432 255.6 5.904L255.792 5.632C256.64 5.952 257.28 6.288 257.712 6.688C258.096 7.04 258.24 7.312 258.224 7.632C258.224 7.92 258.064 8.096 257.792 8.096C257.552 8.096 257.36 7.776 257.056 7.36ZM258.464 6.24C258.128 5.856 257.76 5.456 256.976 4.912L257.168 4.656C258.016 4.912 258.656 5.216 259.056 5.536C259.488 5.888 259.664 6.192 259.664 6.528C259.664 6.816 259.504 6.976 259.248 6.976C258.96 6.976 258.784 6.64 258.464 6.24ZM251.264 12.688C252.752 12.688 253.968 13.008 254.656 13.2C254.832 13.248 254.864 13.216 254.736 13.088C253.92 12.144 252.976 10.848 252.16 9.552C251.648 8.704 251.184 7.68 250.768 7.04C250.496 6.624 250.032 6.608 249.104 6.608L249.056 6.32C249.568 6.016 250.08 5.84 250.512 5.84C251.2 5.84 251.856 6.048 251.936 6.368C252.224 7.328 252.464 8.16 253.072 9.232C253.856 10.672 255.008 11.952 256.08 12.96C256.448 13.328 256.592 13.504 256.592 13.808C256.608 14.272 256.352 14.976 255.936 14.976C255.552 14.976 255.296 14.704 254.832 14.432C253.92 13.888 252.608 13.312 250.928 13.312C249.168 13.312 247.856 14.288 247.856 15.568C247.856 16.736 249.2 17.552 251.616 17.552C252.8 17.552 253.376 17.376 253.952 17.376C254.496 17.376 254.928 17.584 254.928 18.016C254.928 18.496 254.144 18.832 252.048 18.832C249.28 18.832 246.912 17.904 246.912 15.76C246.912 14.016 248.784 12.688 251.264 12.688ZM252.432 8.736C254.416 8.032 254.928 7.36 255.392 7.168C255.712 7.056 256.192 7.088 256.4 7.328C256.576 7.536 256.496 7.856 256.256 8.08C255.728 8.528 254.368 9.232 252.944 9.712C251.936 10.064 250.224 10.496 248.976 10.496C247.312 10.512 246.736 9.92 245.904 8.576L246.176 8.336C247.168 9.136 247.68 9.44 248.896 9.44C249.888 9.44 251.44 9.088 252.432 8.736ZM262.512 9.392C262.512 8.512 262.304 8.032 261.248 7.264L261.392 7.024C261.776 7.072 262.176 7.12 262.544 7.28C263.184 7.568 264.048 8.336 264.048 9.008C264.048 9.744 263.408 10.72 263.408 12.464C263.408 14.32 264.288 15.312 264.928 15.616C265.168 15.744 265.344 15.712 265.504 15.488C266.016 14.736 266.56 13.6 267.04 12.592L267.44 12.768C267.072 13.872 266.608 15.232 266.528 15.744C266.416 16.528 266.688 16.576 266.688 16.96C266.688 17.488 266.16 17.776 265.392 17.456C264.128 16.912 262.528 15.504 262.432 12.592C262.384 11.408 262.512 10.208 262.512 9.392ZM269.968 8.912L270.096 8.56C271.648 8.784 272.48 9.328 273.264 10.112C274.192 11.056 274.656 12.576 274.656 13.68C274.656 14.432 274.416 14.768 273.888 14.768C273.616 14.768 273.376 14.592 273.28 14.192C273.152 13.504 273.088 12.272 272.464 11.072C271.952 10.064 271.088 9.36 269.968 8.912ZM282.496 6.112L282.448 5.808C282.784 5.632 283.184 5.488 283.664 5.488C284.448 5.488 285.472 5.952 285.472 6.416C285.472 6.752 285.248 6.896 285.168 7.296C284.992 8.064 284.848 9.408 284.848 11.296C284.848 13.68 285.2 15.264 285.2 16.592C285.2 17.936 284.064 18.736 282.256 18.736C280.624 18.736 279.44 18.016 279.44 16.8C279.44 15.504 281.088 14.768 283.12 14.768C286.128 14.768 288.176 16.032 288.816 16.576C289.216 16.896 289.44 17.216 289.44 17.6C289.44 17.968 289.232 18.16 288.944 18.16C288.624 18.16 288.432 18 288.128 17.712C286.752 16.448 284.88 15.536 282.592 15.536C281.088 15.536 280.112 16.096 280.112 16.736C280.112 17.28 280.704 17.712 281.696 17.712C283.568 17.712 284.08 17.152 284.08 15.616C284.08 14.672 283.936 12.816 283.936 10.848C283.936 9.264 284 7.184 284 6.864C284 6.544 283.92 6.432 283.664 6.336C283.328 6.224 283.008 6.176 282.496 6.112ZM278.64 7.536C279.424 8.16 279.984 8.544 281.44 8.544C283.616 8.544 286.24 8 287.248 7.664C287.744 7.504 288 7.328 288.192 7.328C288.592 7.328 289.184 7.504 289.184 7.904C289.184 8.24 288.944 8.368 288.592 8.496C287.648 8.832 284.512 9.52 281.68 9.52C280.176 9.52 279.184 9.12 278.384 7.728L278.64 7.536ZM280.784 10C279.856 11.264 280.464 11.632 282 11.632C283.728 11.632 285.616 11.36 286.96 10.928C287.536 10.752 287.808 10.576 287.968 10.576C288.4 10.576 288.88 10.736 288.88 11.136C288.88 11.424 288.672 11.6 288.368 11.728C287.456 12.08 284.576 12.608 282.048 12.608C279.84 12.608 278.688 11.472 280.48 9.824L280.784 10ZM293.328 8.032L293.616 7.92C294.032 8.48 294.32 8.928 294.88 8.928C295.584 8.944 299.68 8.352 301.28 8.192C304.304 7.872 305.184 7.696 305.504 7.696C306.144 7.696 307.056 8.048 307.056 8.624C307.056 8.992 306.864 9.088 306.496 9.088C305.904 9.088 304.72 8.688 301.408 8.976C299.552 9.136 297.584 9.568 296.528 9.84C295.792 10.032 295.472 10.304 295.008 10.304C294.448 10.304 293.648 9.552 293.472 9.056C293.36 8.752 293.344 8.368 293.328 8.032ZM299.04 6.144L298.992 5.856C299.312 5.664 299.744 5.44 300.192 5.44C300.912 5.44 301.968 5.824 301.968 6.256C301.968 6.64 301.712 6.912 301.68 7.312C301.616 8.064 301.616 10.592 301.664 12.176L300.704 11.264C300.704 10.48 300.576 7.968 300.464 6.8C300.448 6.48 300.368 6.4 300.112 6.304C299.856 6.224 299.504 6.192 299.04 6.144ZM300.048 10.784C301.648 10.784 302.32 11.984 302.32 13.6C302.32 16.64 299.968 18.4 296.752 19.088L296.56 18.72C298.512 18 300.128 16.912 300.72 15.36C299.136 16 297.888 14.736 297.888 13.104C297.888 11.872 298.736 10.784 300.048 10.784ZM299.872 14.48C300.672 14.48 301.04 14.08 301.04 13.024C301.04 12.064 300.576 11.488 299.904 11.488C299.104 11.488 298.592 12.176 298.592 13.008C298.592 13.872 299.136 14.48 299.872 14.48ZM315.968 18.208C315.408 18.208 314.992 17.76 314.992 17.264C314.992 16.736 315.408 16.304 315.968 16.304C316.528 16.304 316.944 16.736 316.944 17.264C316.944 17.76 316.528 18.208 315.968 18.208ZM315.744 14.544L315.536 11.392C315.232 8.896 315.12 7.664 315.12 6.752C315.12 6.08 315.488 5.76 315.968 5.76C316.464 5.76 316.832 6.08 316.832 6.752C316.832 7.664 316.704 8.896 316.416 11.392L316.208 14.544H315.744Z" fill="black"/>
</svg>
